<svg xmlns="http://www.w3.org/2000/svg" xmlns:xlink="http://www.w3.org/1999/xlink" width="232" height="232" viewBox="0 0 232 232"><defs><style>.a{fill:#fff;stroke:#e4e4e4;}.b{fill:#f73478;}.c{fill:url(#a);}.d{fill:#810730;}.e{fill:#f9578f;}.f{fill:#fa7ca7;}.g{fill:#fb91b5;}.h{fill:url(#e);}.i{fill:url(#g);}.j{fill:#415a6b;}.k{fill:url(#i);}.l{fill:url(#j);}.m{fill:#344a5e;}.n{fill:#e8eae9;}.o{fill:#f3f3f3;}.p{stroke:none;}.q{fill:none;}</style><linearGradient id="a" x1="0.227" y1="0.183" x2="1" y2="0.965" gradientUnits="objectBoundingBox"><stop offset="0" stop-color="#0089ff"/><stop offset="1" stop-color="#0068c1"/></linearGradient><linearGradient id="e" x1="0.145" y1="0.047" x2="0.911" y2="1" gradientUnits="objectBoundingBox"><stop offset="0" stop-color="#ffdf8e"/><stop offset="1" stop-color="#f4af00"/></linearGradient><linearGradient id="g" x1="-0.151" y1="-0.692" x2="0.756" y2="0.5" gradientUnits="objectBoundingBox"><stop offset="0" stop-color="#f3705a"/><stop offset="1" stop-color="#e35037"/></linearGradient><linearGradient id="i" x1="0.5" y1="0.167" x2="1" y2="0.965" gradientUnits="objectBoundingBox"><stop offset="0" stop-color="#00e2ff"/><stop offset="1" stop-color="#0085f7"/></linearGradient><linearGradient id="j" x1="0.263" y1="0.436" x2="0.828" y2="0.786" gradientUnits="objectBoundingBox"><stop offset="0" stop-color="#00365c"/><stop offset="1" stop-color="#305672"/></linearGradient></defs><g transform="translate(-684 -2928)"><g class="a" transform="translate(684 2928)"><circle class="p" cx="116" cy="116" r="116"/><circle class="q" cx="116" cy="116" r="115.5"/></g><g transform="translate(4.567 1)"><g transform="translate(791.021 2983.759) rotate(-42)"><path class="b" d="M24.415,15.556l1.178-3.534a1.526,1.526,0,0,1,1.448-1.044h3.478l1.526-6.1-6.1-3.052L22.889.3H21.364a6.684,6.684,0,0,1-4.578,1.526A6.417,6.417,0,0,1,12.271.3h-1.59L1.526,4.875l1.526,6.1H6.53a1.526,1.526,0,0,1,1.448,1.044l1.178,3.534A14.331,14.331,0,0,0,0,29.29s4.578,4.578,16.786,4.578S33.571,29.29,33.571,29.29A14.331,14.331,0,0,0,24.415,15.556Zm0,0"/><path class="c" d="M23.109,56.04l-.379-1.516-1.4.7,1.526,6.1h1.573L24.05,59.8Zm0,0" transform="translate(-19.806 -50.348)"/><path class="c" d="M406,56.04l.379-1.516,1.4.7-1.526,6.1h-1.573l.382-1.526Zm0,0" transform="translate(-375.729 -50.348)"/><path class="d" d="M165.341,5.638A5.341,5.341,0,0,0,170.682.3h-.763a6.684,6.684,0,0,1-4.578,1.526A6.417,6.417,0,0,1,160.827.3H160A5.341,5.341,0,0,0,165.341,5.638Zm0,0" transform="translate(-148.555)"/><path class="c" d="M155.436,6.4a6.111,6.111,0,0,1-6.1-6.1h1.526a4.578,4.578,0,0,0,9.156,0h1.526A6.111,6.111,0,0,1,155.436,6.4Zm0,0" transform="translate(-138.65)"/><path class="c" d="M24.415,213.629H9.156A14.331,14.331,0,0,0,0,227.363s4.578,4.578,16.786,4.578,16.785-4.578,16.785-4.578A14.331,14.331,0,0,0,24.415,213.629Zm0,0" transform="translate(0 -198.072)"/><path class="e" d="M155.436,174.017l-.8-.8-1.621-1.621a2.158,2.158,0,0,0-3.684,1.526v1.788a2.158,2.158,0,0,0,3.684,1.526Zm0,0" transform="translate(-138.65 -158.46)"/><path class="e" d="M234.668,174.017l2.42-2.42a2.158,2.158,0,0,1,3.684,1.526v1.788a2.158,2.158,0,0,1-3.684,1.526Zm0,0" transform="translate(-217.882 -158.46)"/><path class="f" d="M214.858,192.3a1.526,1.526,0,1,1-1.526,1.526A1.526,1.526,0,0,1,214.858,192.3Zm0,0" transform="translate(-198.072 -178.266)"/><path class="g" d="M172.194,193.06a.763.763,0,1,1-.763-.763A.763.763,0,0,1,172.194,193.06Zm0,0" transform="translate(-158.46 -178.266)"/><path class="g" d="M278.858,193.06a.763.763,0,1,1-.763-.763A.763.763,0,0,1,278.858,193.06Zm0,0" transform="translate(-257.495 -178.266)"/></g><g transform="translate(705 2735.196)"><path class="h" d="M44.484,9.153H4.667C2.091,9.153,0,7.486,0,5.431V3.722C0,1.668,2.091,0,4.667,0H44.484c2.579,0,4.667,1.668,4.667,3.722V5.431c0,2.053-2.086,3.722-4.667,3.722" transform="translate(48.921 209.804) rotate(68)"/><g transform="translate(50.987 253.298)"><path class="h" d="M204.366,62.118H150.025a6.371,6.371,0,0,1-6.369-6.369V6.369A6.371,6.371,0,0,1,150.025,0h54.341a6.369,6.369,0,0,1,6.369,6.369v49.38a6.369,6.369,0,0,1-6.369,6.369" transform="translate(-132.257 0)"/><path class="i" d="M0,0H14.305a0,0,0,0,1,0,0V12.082a4,4,0,0,1-4,4H4a4,4,0,0,1-4-4V0A0,0,0,0,1,0,0Z" transform="translate(37.789)"/><g transform="translate(0 40.813)"><rect class="j" width="20.352" height="6.401" transform="translate(89.582 7.326) rotate(-177.375)"/><rect class="j" width="20.352" height="6.401" transform="translate(0 0.941) rotate(-2.625)"/></g><path class="c" d="M207.659,173.849a16.768,16.768,0,0,0-11.694-15.089l-19.716-6.611-19.722,6.611a16.768,16.768,0,0,0-11.694,15.089l-2.519,40.976c-.312,7.936,5.325,14.977,13.467,16.818a92.607,92.607,0,0,0,40.938,0c8.143-1.841,13.77-8.882,13.467-16.818Z" transform="translate(-131.308 -106.725)"/><path class="k" d="M222.167,141.141a88.71,88.71,0,0,0-1.22,15c0,17.719,4.685,32.094,10.468,32.094s10.461-14.375,10.461-32.094a88.747,88.747,0,0,0-1.22-15Z" transform="translate(-186.473 -99.003)"/><path class="l" d="M232.963,330.539a9.808,9.808,0,0,0-9.808,9.808v34.565a9.805,9.805,0,0,0,19.61,0V340.347a9.807,9.807,0,0,0-9.8-9.808" transform="translate(-188.022 -231.856)"/><path class="k" d="M236.039,344.874V326.817a14.794,14.794,0,1,0-29.588,0v18.056a92.6,92.6,0,0,0,29.588,0" transform="translate(-176.305 -218.867)"/><g transform="translate(14.583 27.486)"><path class="m" d="M215.033,135.684h-60.71V124.9a189.781,189.781,0,0,1,60.71,0v10.78Z" transform="translate(-154.323 -113.386)"/><path class="m" d="M234.838,107.751a15.687,15.687,0,1,1-15.693-15.687,15.687,15.687,0,0,1,15.693,15.687" transform="translate(-188.793 -92.064)"/></g><path class="n" d="M242.361,120.86a10.1,10.1,0,1,1-10.1-10.108,10.106,10.106,0,0,1,10.1,10.108" transform="translate(-187.318 -77.687)"/><path class="o" d="M232.26,130.957a10.108,10.108,0,1,1,0-20.216Z" transform="translate(-187.318 -77.679)"/></g></g></g></g></svg>