<svg xmlns="http://www.w3.org/2000/svg" width="189.052" height="58.225" viewBox="0 0 189.052 58.225"><defs><style>.a,.b{fill:#fff;}.a{stroke:rgba(0,0,0,0);}</style></defs><g transform="translate(-475.901 -391.974)"><path class="a" d="M182.876,36.894a13.869,13.869,0,0,1-3.241-.385,7.629,7.629,0,0,1-2.69-1.225,5.755,5.755,0,0,1-1.8-2.186,7.51,7.51,0,0,1-.648-3.267V24.4c2.983-.836,5.407-1.576,7.206-2.2v4.319a14.812,14.812,0,0,0,.1,1.753,3.516,3.516,0,0,0,.433,1.369,2.2,2.2,0,0,0,1.033.889,4.557,4.557,0,0,0,1.67.316c.06,0,.12,0,.179,0a12.445,12.445,0,0,0,1.513-.12c.033,0,.066,0,.1,0a1.321,1.321,0,0,1,1.318,1.32v3.19a1.279,1.279,0,0,1-.953,1.242,10.939,10.939,0,0,1-1.545.283,23.051,23.051,0,0,1-2.546.144Zm-133.423,0h-.086a10.826,10.826,0,0,1-3.108-.456,7.9,7.9,0,0,1-2.666-1.369,6.613,6.613,0,0,1-1.826-2.257,6.933,6.933,0,0,1-.673-3.122,8.768,8.768,0,0,1,.186-1.861,6,6,0,0,1,.558-1.549,6.7,6.7,0,0,1,2.018-2.306,10,10,0,0,1,2.907-1.419,21.276,21.276,0,0,1,3.386-.745,32.5,32.5,0,0,1,3.508-.287c.6-.016,1.181-.029,1.72-.037.038,0,.077,0,.115-.007a74.7,74.7,0,0,1,7.955.641c.064.773.091,1.558.081,2.332V35.039a1.279,1.279,0,0,1-1.278,1.277H58.177A1.279,1.279,0,0,1,56.9,35.039V33.386h-.1a6.775,6.775,0,0,1-3.194,2.69,10.981,10.981,0,0,1-4.156.817Zm5.669-10.809c-.539,0-1.226.024-2.042.072a10.363,10.363,0,0,0-2.354.408,5.207,5.207,0,0,0-1.921,1.01,2.146,2.146,0,0,0-.594.805,2.735,2.735,0,0,0-.2,1.068,2.061,2.061,0,0,0,1.1,1.921,4.627,4.627,0,0,0,2.306.624h.02a7.217,7.217,0,0,0,2.021-.288,6.073,6.073,0,0,0,1.753-.817,3.965,3.965,0,0,0,1.225-1.345,3.879,3.879,0,0,0,.455-1.921v-.815a.723.723,0,0,0-.723-.723Zm20.7,10.808a18.353,18.353,0,0,1-4.948-.7,9.2,9.2,0,0,1-3.2-1.565,1.243,1.243,0,0,1-.49-.884,1.3,1.3,0,0,1,.327-.989l2.57-2.852a1.289,1.289,0,0,1,.956-.426,1.27,1.27,0,0,1,.849.325,7.263,7.263,0,0,0,1.362.964,6.054,6.054,0,0,0,2.722.65l.136,0h.09a6.666,6.666,0,0,0,2.167-.361,1.6,1.6,0,0,0,.757-.51,1.3,1.3,0,0,0,.252-.811,1.44,1.44,0,0,0-.222-.8,1.7,1.7,0,0,0-.667-.57,9.751,9.751,0,0,0-2.257-.769c-.91-.207-1.9-.434-2.93-.673a12.122,12.122,0,0,1-2.93-1.081A6.148,6.148,0,0,1,68.117,23.8a4.634,4.634,0,0,1-.534-1.095c2.424.366,5.147.862,7.669,1.4,2.849.6,7.76,2.029,11.1,3.067a8.841,8.841,0,0,1-.012,4.095,5.483,5.483,0,0,1-.739,1.663,7.551,7.551,0,0,1-2.522,2.354,10.813,10.813,0,0,1-3.459,1.249A20.6,20.6,0,0,1,75.825,36.892Zm89.845-.576h-4.638a1.285,1.285,0,0,1-1.284-1.284V28.2c.786-.188,3.628-.871,7.206-1.787v8.624A1.285,1.285,0,0,1,165.67,36.316Zm-26.61,0h-4.643a1.283,1.283,0,0,1-1.282-1.281V32.341c2.262-.2,4.956-.53,7.206-.872v3.565A1.283,1.283,0,0,1,139.06,36.316Zm-15.276,0h-4.643a1.283,1.283,0,0,1-1.282-1.281V32.6c.829.01,3.755.044,6.587.044h.619v2.386A1.283,1.283,0,0,1,123.784,36.316Zm-12.3,0h-4.642a1.284,1.284,0,0,1-1.283-1.282V31.6c1.68.273,4.1.52,7.207.734v2.7A1.284,1.284,0,0,1,111.485,36.316Zm-15.276,0h-4.64a1.284,1.284,0,0,1-1.283-1.282V28.426c2.809.847,5.975,1.541,7.206,1.8v4.807A1.284,1.284,0,0,1,96.209,36.316Zm-65.484,0H25.468a1.286,1.286,0,0,1-1.227-.9L20.33,22.906c1.766-.22,2.391-.277,4.064-.43.568-.052,1.275-.117,2.2-.2l1.578,5.349h.1l1.693-5.673c1.847-.175,4.178-.312,6.93-.407l-4.955,13.92A1.288,1.288,0,0,1,30.725,36.316Zm-16.45,0H8.9a1.29,1.29,0,0,1-1.207-.844L4.6,27.051c1-.319,3.633-1.148,6.46-1.969l.824,2.539h.1l.827-3.038c2.73-.765,4.79-1.266,6.125-1.489L15.514,35.375a1.286,1.286,0,0,1-1.239.941Zm109.509-4.281c-.312,0-.593-.007-1.058-.019-.774-.02-2.069-.053-4.867-.086V1.282A1.283,1.283,0,0,1,119.141,0h4.643a1.283,1.283,0,0,1,1.281,1.282V16.14h.1a4.316,4.316,0,0,1,.817-1.345,6.4,6.4,0,0,1,1.393-1.2,7.6,7.6,0,0,1,1.921-.865,8.221,8.221,0,0,1,2.33-.337h.072a13.361,13.361,0,0,1,2.474.21,7.486,7.486,0,0,1,1.945.631,6.385,6.385,0,0,1,2.619,2.33A9.425,9.425,0,0,1,140,19.071a26.707,26.707,0,0,1,.336,4.372v7.374c-1.911.3-6.669.707-7.206.753V24.883c0-.669-.024-1.372-.072-2.089a6.583,6.583,0,0,0-.432-1.994,3.1,3.1,0,0,0-3.243-2.065,4.463,4.463,0,0,0-2.257.5,3.437,3.437,0,0,0-1.321,1.345,5.477,5.477,0,0,0-.6,1.9,16.435,16.435,0,0,0-.144,2.21V32.01C124.426,32.029,124.09,32.035,123.784,32.035Zm-11.016-.287h0c-3.682-.224-6.267-.59-7.207-.738V24.883c0-.672-.024-1.375-.072-2.089a6.583,6.583,0,0,0-.432-1.994,3.1,3.1,0,0,0-3.243-2.065,4.465,4.465,0,0,0-2.257.5,3.435,3.435,0,0,0-1.321,1.345,5.478,5.478,0,0,0-.6,1.9,16.452,16.452,0,0,0-.144,2.21v4.843c-2.434-.465-6.458-1.64-6.5-1.651l-.707-.213V1.283A1.284,1.284,0,0,1,91.569,0h4.64a1.284,1.284,0,0,1,1.283,1.283V16.14h.1A4.317,4.317,0,0,1,98.4,14.8a6.4,6.4,0,0,1,1.393-1.2,7.594,7.594,0,0,1,1.921-.865,8.22,8.22,0,0,1,2.329-.337h.072a13.361,13.361,0,0,1,2.474.21,7.487,7.487,0,0,1,1.945.631,6.385,6.385,0,0,1,2.619,2.33,9.424,9.424,0,0,1,1.273,3.507,26.729,26.729,0,0,1,.337,4.372v8.306Zm46.98-4.37V14.254a1.285,1.285,0,0,1,1.284-1.284h4.638a1.285,1.285,0,0,1,1.284,1.284V25.688c-2.732.654-5.949,1.4-7.205,1.69ZM4.384,26.448.08,14.7A1.286,1.286,0,0,1,1.288,12.97H6.2a1.283,1.283,0,0,1,1.223.889L10.837,24.38C8,25.241,5.378,26.113,4.384,26.448ZM86.1,26.416h0l-4.035-1.206c-2.3-.687-4.691-1.312-7.112-1.858-2.508-.566-5.057-1.049-7.575-1.436a8.664,8.664,0,0,1-.146-1.644,8.376,8.376,0,0,1,.21-1.921,6.241,6.241,0,0,1,.631-1.633,7.387,7.387,0,0,1,2.21-2.45,9.532,9.532,0,0,1,3.146-1.418,14.435,14.435,0,0,1,3.595-.455h.009a16.9,16.9,0,0,1,4.66.673,8.609,8.609,0,0,1,2.881,1.414,1.288,1.288,0,0,1,.136,1.947l-2.539,2.509a1.284,1.284,0,0,1-.908.374,1.257,1.257,0,0,1-.8-.287,4.889,4.889,0,0,0-1.543-.867,5.678,5.678,0,0,0-1.839-.289A3.947,3.947,0,0,0,75.3,18.3a1.507,1.507,0,0,0-.648.588,1.773,1.773,0,0,0-.216.9,1.284,1.284,0,0,0,.222.751,1.611,1.611,0,0,0,.667.522,11.782,11.782,0,0,0,2.257.72c.928.212,1.914.438,2.93.673a11,11,0,0,1,2.93,1.129,6.587,6.587,0,0,1,2.257,2.09,4.447,4.447,0,0,1,.4.74ZM13.045,23.728h0l2.67-9.809a1.289,1.289,0,0,1,1.241-.948h5.933a1.286,1.286,0,0,1,1.233.922L26.39,21.58c-2.459.2-4.634.408-6.288.6l-.43-1.377h-.1l-.415,1.49-.129.016a46.459,46.459,0,0,0-5.987,1.421Zm161.45-.035h0V20.018a1.285,1.285,0,0,0-1.284-1.284h-2.044a1.285,1.285,0,0,1-1.284-1.284v-3.2a1.285,1.285,0,0,1,1.284-1.284h2.044a1.285,1.285,0,0,0,1.284-1.284V7.337a1.285,1.285,0,0,1,1.284-1.284h4.638A1.285,1.285,0,0,1,181.7,7.337v4.35a1.285,1.285,0,0,0,1.284,1.284h3.773a1.285,1.285,0,0,1,1.284,1.284v3.2a1.285,1.285,0,0,1-1.284,1.284h-3.773a1.285,1.285,0,0,0-1.284,1.284v1.528C180.78,21.827,177.539,22.809,174.5,23.693ZM63.376,21.379h0c-2.154-.248-4.294-.423-6.36-.523l-.539-.025a1.256,1.256,0,0,0,.034-1.179,3.676,3.676,0,0,0-.98-1.228,4.948,4.948,0,0,0-3.143-1.129H52.2a7.052,7.052,0,0,0-3.151.743,8.876,8.876,0,0,0-1.761,1.19,1.288,1.288,0,0,1-.843.316,1.263,1.263,0,0,1-.911-.384L43.552,17.13a1.282,1.282,0,0,1-.36-1,1.268,1.268,0,0,1,.509-.918,13.213,13.213,0,0,1,3.591-1.884,16.789,16.789,0,0,1,5.533-.936h.039a19.408,19.408,0,0,1,2.888.2,11.057,11.057,0,0,1,2.324.594,7.585,7.585,0,0,1,3.267,2.33,8.978,8.978,0,0,1,1.705,3.771c.138.689.248,1.393.326,2.091Zm-33.218-.085h0l2.209-7.4A1.286,1.286,0,0,1,33.6,12.97H38.12a1.286,1.286,0,0,1,1.211,1.717l-2.206,6.2c-2.013.088-4.422.23-6.968.409ZM163.288,9.8h0A4.025,4.025,0,0,1,160.4,8.576a4.027,4.027,0,0,1-1.225-2.955A4.026,4.026,0,0,1,160.4,2.666a4.027,4.027,0,0,1,2.892-1.225h.124A4.026,4.026,0,0,1,166.3,2.666,4.026,4.026,0,0,1,167.53,5.62,4.026,4.026,0,0,1,166.3,8.575,4.026,4.026,0,0,1,163.412,9.8h-.123Z" transform="translate(476.411 392.474)"/><path class="b" d="M-296.5-32.53l1.757-4.756h.983l-2.875,7.25a2.969,2.969,0,0,1-.657,1.057,1.57,1.57,0,0,1-1.149.393q-.184,0-.375-.012a1.482,1.482,0,0,1-.375-.074l.086-.786a1.308,1.308,0,0,0,.614.135.868.868,0,0,0,.676-.27,2.36,2.36,0,0,0,.43-.762l.418-1.106-2.359-5.825h1.02Zm8.454-1.88a2.58,2.58,0,0,0-.154-.9,2.156,2.156,0,0,0-.436-.725,2.048,2.048,0,0,0-.682-.485,2.194,2.194,0,0,0-.9-.178,2.194,2.194,0,0,0-.9.178,1.983,1.983,0,0,0-.676.485,2.211,2.211,0,0,0-.43.725,2.579,2.579,0,0,0-.154.9,2.579,2.579,0,0,0,.154.9,2.211,2.211,0,0,0,.43.725,1.983,1.983,0,0,0,.676.485,2.194,2.194,0,0,0,.9.178,2.194,2.194,0,0,0,.9-.178,2.048,2.048,0,0,0,.682-.485,2.156,2.156,0,0,0,.436-.725A2.58,2.58,0,0,0-288.041-34.41Zm.885,0a3.137,3.137,0,0,1-.227,1.2,2.9,2.9,0,0,1-.633.958,2.882,2.882,0,0,1-.965.633,3.25,3.25,0,0,1-1.235.227,3.216,3.216,0,0,1-1.223-.227,2.882,2.882,0,0,1-.965-.633,2.9,2.9,0,0,1-.633-.958,3.136,3.136,0,0,1-.227-1.2,3.136,3.136,0,0,1,.227-1.2,2.9,2.9,0,0,1,.633-.958,2.882,2.882,0,0,1,.965-.633,3.216,3.216,0,0,1,1.223-.227,3.25,3.25,0,0,1,1.235.227,2.882,2.882,0,0,1,.965.633,2.9,2.9,0,0,1,.633.958A3.137,3.137,0,0,1-287.157-34.41Zm5.37,2.875q-.025-.233-.031-.461t-.006-.461h-.025a1.891,1.891,0,0,1-.344.43,2.264,2.264,0,0,1-.467.338,2.55,2.55,0,0,1-.547.221,2.137,2.137,0,0,1-.571.08,2.1,2.1,0,0,1-1.634-.584,2.4,2.4,0,0,1-.528-1.665v-3.65h.811V-34.1a4.353,4.353,0,0,0,.074.848,1.608,1.608,0,0,0,.252.621,1.107,1.107,0,0,0,.479.381,1.926,1.926,0,0,0,.756.129,3.111,3.111,0,0,0,.344-.049,1.5,1.5,0,0,0,.6-.27,1.952,1.952,0,0,0,.559-.664,2.551,2.551,0,0,0,.246-1.229v-2.949h.811V-32.8q0,.233.018.59t.043.676Zm9.228-2.875a2.58,2.58,0,0,0,.154.9,2.156,2.156,0,0,0,.436.725,2.048,2.048,0,0,0,.682.485,2.194,2.194,0,0,0,.9.178,2.339,2.339,0,0,0,.915-.178,2.259,2.259,0,0,0,.731-.485,2.2,2.2,0,0,0,.479-.725,2.333,2.333,0,0,0,.172-.9,2.333,2.333,0,0,0-.172-.9,2.2,2.2,0,0,0-.479-.725,2.259,2.259,0,0,0-.731-.485,2.339,2.339,0,0,0-.915-.178,2.194,2.194,0,0,0-.9.178,2.048,2.048,0,0,0-.682.485,2.156,2.156,0,0,0-.436.725A2.58,2.58,0,0,0-272.558-34.41Zm5.247,2.875h-.811v-.958h-.025a2.109,2.109,0,0,1-.467.5,2.9,2.9,0,0,1-.565.344,2.7,2.7,0,0,1-.608.2,3.1,3.1,0,0,1-.6.061,3.25,3.25,0,0,1-1.235-.227,2.881,2.881,0,0,1-.965-.633,2.9,2.9,0,0,1-.633-.958,3.137,3.137,0,0,1-.227-1.2,3.137,3.137,0,0,1,.227-1.2,2.9,2.9,0,0,1,.633-.958,2.881,2.881,0,0,1,.965-.633,3.25,3.25,0,0,1,1.235-.227,3.1,3.1,0,0,1,.6.061,2.7,2.7,0,0,1,.608.2,2.9,2.9,0,0,1,.565.344,2.109,2.109,0,0,1,.467.5h.025v-4.5h.811Zm1.6-3.957q0-.381-.018-.774t-.031-1.02h.8v1.069h.025a1.786,1.786,0,0,1,.246-.449,1.923,1.923,0,0,1,.387-.387,1.9,1.9,0,0,1,.528-.276,2.074,2.074,0,0,1,.682-.1,2.2,2.2,0,0,1,.6.074l-.16.8a1.365,1.365,0,0,0-.467-.061,1.667,1.667,0,0,0-.8.178,1.771,1.771,0,0,0-.553.455,1.89,1.89,0,0,0-.326.6,1.974,1.974,0,0,0-.1.614v3.244h-.811Zm8.442,1.081a2.58,2.58,0,0,0-.154-.9,2.157,2.157,0,0,0-.436-.725,2.05,2.05,0,0,0-.682-.485,2.194,2.194,0,0,0-.9-.178,2.194,2.194,0,0,0-.9.178,1.984,1.984,0,0,0-.676.485,2.211,2.211,0,0,0-.43.725,2.58,2.58,0,0,0-.154.9,2.58,2.58,0,0,0,.154.9,2.211,2.211,0,0,0,.43.725,1.984,1.984,0,0,0,.676.485,2.194,2.194,0,0,0,.9.178,2.194,2.194,0,0,0,.9-.178,2.05,2.05,0,0,0,.682-.485,2.157,2.157,0,0,0,.436-.725A2.58,2.58,0,0,0-257.272-34.41Zm.885,0a3.137,3.137,0,0,1-.227,1.2,2.9,2.9,0,0,1-.633.958,2.882,2.882,0,0,1-.965.633,3.249,3.249,0,0,1-1.235.227,3.216,3.216,0,0,1-1.223-.227,2.881,2.881,0,0,1-.965-.633,2.9,2.9,0,0,1-.633-.958,3.136,3.136,0,0,1-.227-1.2,3.136,3.136,0,0,1,.227-1.2,2.9,2.9,0,0,1,.633-.958,2.881,2.881,0,0,1,.965-.633,3.216,3.216,0,0,1,1.223-.227,3.249,3.249,0,0,1,1.235.227,2.882,2.882,0,0,1,.965.633,2.9,2.9,0,0,1,.633.958A3.137,3.137,0,0,1-256.387-34.41Zm6.464,0a2.578,2.578,0,0,0-.154-.9,2.156,2.156,0,0,0-.436-.725,2.049,2.049,0,0,0-.682-.485,2.194,2.194,0,0,0-.9-.178,2.326,2.326,0,0,0-.922.178,2.276,2.276,0,0,0-.725.485,2.194,2.194,0,0,0-.479.725,2.333,2.333,0,0,0-.172.9,2.333,2.333,0,0,0,.172.9,2.194,2.194,0,0,0,.479.725,2.276,2.276,0,0,0,.725.485,2.326,2.326,0,0,0,.922.178,2.194,2.194,0,0,0,.9-.178,2.049,2.049,0,0,0,.682-.485,2.156,2.156,0,0,0,.436-.725A2.578,2.578,0,0,0-249.924-34.41Zm-5.247-2.875h.811v.958h.025a2.11,2.11,0,0,1,.467-.5,2.9,2.9,0,0,1,.565-.344,2.7,2.7,0,0,1,.608-.2,3.1,3.1,0,0,1,.6-.061,3.25,3.25,0,0,1,1.235.227,2.882,2.882,0,0,1,.965.633,2.9,2.9,0,0,1,.633.958,3.136,3.136,0,0,1,.227,1.2,3.136,3.136,0,0,1-.227,1.2,2.9,2.9,0,0,1-.633.958,2.882,2.882,0,0,1-.965.633,3.25,3.25,0,0,1-1.235.227,3.1,3.1,0,0,1-.6-.061,2.7,2.7,0,0,1-.608-.2,2.9,2.9,0,0,1-.565-.344,2.111,2.111,0,0,1-.467-.5h-.025V-28h-.811Zm11.588-2.212a.545.545,0,0,1-.184.424.594.594,0,0,1-.406.166.594.594,0,0,1-.406-.166.545.545,0,0,1-.184-.424.545.545,0,0,1,.184-.424.594.594,0,0,1,.406-.166.594.594,0,0,1,.406.166A.545.545,0,0,1-243.583-39.5Zm-.184,7.963h-.811v-5.751h.811Zm4.669-5.014h-1.659v3.392a1.843,1.843,0,0,0,.061.522.737.737,0,0,0,.172.313.594.594,0,0,0,.264.154,1.251,1.251,0,0,0,.338.043,1.6,1.6,0,0,0,.43-.061,1.992,1.992,0,0,0,.406-.16l.037.75a2.6,2.6,0,0,1-1.094.209,2.046,2.046,0,0,1-.485-.061,1.144,1.144,0,0,1-.461-.233,1.286,1.286,0,0,1-.344-.467,1.875,1.875,0,0,1-.135-.774v-3.625h-1.216v-.737h1.216v-1.622h.811v1.622h1.659Zm1.585,6.734h-.823l.823-2.888h1Zm5.825-7.471,1.327,4.669h.025l1.536-4.669h.836l1.536,4.669h.025l1.327-4.669h.958l-1.819,5.751h-.909l-1.524-4.719h-.025l-1.524,4.719h-.909l-1.819-5.751Zm12.841,2.433a1.841,1.841,0,0,0-.492-1.333,1.822,1.822,0,0,0-1.376-.51,1.963,1.963,0,0,0-.762.154,2.145,2.145,0,0,0-.645.412,2.064,2.064,0,0,0-.442.59,1.52,1.52,0,0,0-.166.688Zm-3.908.664a2.467,2.467,0,0,0,.209.811,2.143,2.143,0,0,0,.455.657,2.139,2.139,0,0,0,.651.436,1.987,1.987,0,0,0,.8.16,2.05,2.05,0,0,0,1.124-.3,2.25,2.25,0,0,0,.719-.694l.627.516a3.117,3.117,0,0,1-1.137.934,3.178,3.178,0,0,1-1.333.283,3.058,3.058,0,0,1-1.186-.227,2.778,2.778,0,0,1-.94-.633,3,3,0,0,1-.621-.958,3.137,3.137,0,0,1-.227-1.2,3.213,3.213,0,0,1,.221-1.2,2.916,2.916,0,0,1,.614-.958,2.825,2.825,0,0,1,.922-.633,2.861,2.861,0,0,1,1.143-.227,2.8,2.8,0,0,1,1.167.233,2.59,2.59,0,0,1,.866.621,2.655,2.655,0,0,1,.535.909,3.317,3.317,0,0,1,.184,1.112v.369Zm7.987-3.244h1.6l1.229,4.227h.025l1.266-4.227h1.573l1.278,4.227h.025l1.253-4.227h1.536l-2.04,5.9h-1.5l-1.339-4.129h-.025l-1.327,4.129h-1.5Zm14.119,5.149h-.037a1.646,1.646,0,0,1-.713.645,2.417,2.417,0,0,1-1.118.252,3.209,3.209,0,0,1-.743-.092,2.213,2.213,0,0,1-.713-.307,1.786,1.786,0,0,1-.541-.565,1.627,1.627,0,0,1-.215-.866,1.468,1.468,0,0,1,.375-1.057,2.423,2.423,0,0,1,.965-.6,5.437,5.437,0,0,1,1.309-.276q.719-.068,1.407-.068v-.147a.911.911,0,0,0-.4-.817,1.686,1.686,0,0,0-.952-.264,2.134,2.134,0,0,0-.9.2,2.414,2.414,0,0,0-.713.479l-.762-.9a3.327,3.327,0,0,1,1.161-.7A3.958,3.958,0,0,1-201.9-37.6a3.277,3.277,0,0,1,1.3.221,2.111,2.111,0,0,1,.8.578,2.066,2.066,0,0,1,.412.8,3.455,3.455,0,0,1,.117.885v3.588h-1.376Zm-.025-1.942H-201q-.356,0-.75.031a3.254,3.254,0,0,0-.725.135,1.548,1.548,0,0,0-.553.295.653.653,0,0,0-.221.522.628.628,0,0,0,.092.35.707.707,0,0,0,.24.227,1.069,1.069,0,0,0,.332.123,1.876,1.876,0,0,0,.369.037,1.537,1.537,0,0,0,1.155-.406,1.521,1.521,0,0,0,.393-1.106Zm6.095-1.634a1.7,1.7,0,0,0-.541-.449,1.522,1.522,0,0,0-.75-.19,1.435,1.435,0,0,0-.651.147.508.508,0,0,0-.295.492.493.493,0,0,0,.326.485,5.958,5.958,0,0,0,.952.289,5.365,5.365,0,0,1,.67.2,2.445,2.445,0,0,1,.614.326,1.605,1.605,0,0,1,.449.5,1.452,1.452,0,0,1,.172.731,1.9,1.9,0,0,1-.2.915,1.723,1.723,0,0,1-.541.608,2.277,2.277,0,0,1-.786.338,4.077,4.077,0,0,1-.928.1,3.683,3.683,0,0,1-1.339-.252,2.832,2.832,0,0,1-1.081-.719l.971-.909a1.939,1.939,0,0,0,.639.528,1.83,1.83,0,0,0,.872.209,1.5,1.5,0,0,0,.326-.037,1.109,1.109,0,0,0,.307-.117.636.636,0,0,0,.227-.215.606.606,0,0,0,.086-.332.545.545,0,0,0-.338-.528,5.446,5.446,0,0,0-1.014-.319,4.874,4.874,0,0,1-.645-.19,2.105,2.105,0,0,1-.559-.307,1.423,1.423,0,0,1-.393-.473,1.5,1.5,0,0,1-.147-.7,1.687,1.687,0,0,1,.2-.848,1.74,1.74,0,0,1,.535-.584,2.4,2.4,0,0,1,.75-.338,3.347,3.347,0,0,1,.86-.111,3.624,3.624,0,0,1,1.247.221,2.106,2.106,0,0,1,.965.676Zm5.247-1.745a2.219,2.219,0,0,1,.989.2,1.95,1.95,0,0,1,.676.535,2.162,2.162,0,0,1,.387.762,3.205,3.205,0,0,1,.123.885v3.686h-1.475v-3.244a4.047,4.047,0,0,0-.037-.535,1.54,1.54,0,0,0-.154-.5,1,1,0,0,0-.332-.375.993.993,0,0,0-.571-.147,1.308,1.308,0,0,0-.614.135,1.272,1.272,0,0,0-.43.362,1.617,1.617,0,0,0-.258.51,1.973,1.973,0,0,0-.086.578v3.219h-1.475v-9.29h1.475v4.215h.025a1.415,1.415,0,0,1,.252-.362,1.986,1.986,0,0,1,.387-.319,2.026,2.026,0,0,1,.5-.227A2.1,2.1,0,0,1-189.331-37.6Zm6.918,0a2.219,2.219,0,0,1,.989.2,1.95,1.95,0,0,1,.676.535,2.163,2.163,0,0,1,.387.762,3.206,3.206,0,0,1,.123.885v3.686h-1.475v-3.244a4.042,4.042,0,0,0-.037-.535,1.539,1.539,0,0,0-.154-.5,1,1,0,0,0-.332-.375.993.993,0,0,0-.571-.147,1.308,1.308,0,0,0-.614.135,1.272,1.272,0,0,0-.43.362,1.618,1.618,0,0,0-.258.51,1.973,1.973,0,0,0-.086.578v3.219h-1.475v-9.29h1.475v4.215h.025a1.415,1.415,0,0,1,.252-.362,1.986,1.986,0,0,1,.387-.319,2.026,2.026,0,0,1,.5-.227A2.1,2.1,0,0,1-182.413-37.6Zm6.476.172h1.475v5.9h-1.475Zm-.209-2a.849.849,0,0,1,.264-.621.907.907,0,0,1,.67-.264.975.975,0,0,1,.682.252.82.82,0,0,1,.276.633.82.82,0,0,1-.276.633.975.975,0,0,1-.682.252.907.907,0,0,1-.67-.264A.849.849,0,0,1-176.146-39.435Zm2.372,3.183v-1.18h1.032v-1.708h1.45v1.708h1.475v1.18h-1.475v2.74a1.345,1.345,0,0,0,.141.651q.141.258.633.258a1.824,1.824,0,0,0,.319-.031,1.289,1.289,0,0,0,.307-.092l.049,1.155a2.423,2.423,0,0,1-.467.117,3.288,3.288,0,0,1-.516.043,2.355,2.355,0,0,1-.958-.166,1.453,1.453,0,0,1-.584-.455,1.682,1.682,0,0,1-.295-.664,3.856,3.856,0,0,1-.08-.8v-2.753Zm9.523,1.991h-1.475v-5.972h1.475Zm-1.72,1.868a.913.913,0,0,1,.289-.676.957.957,0,0,1,.694-.283.986.986,0,0,1,.688.27.865.865,0,0,1,.295.664.913.913,0,0,1-.289.676.957.957,0,0,1-.694.283.97.97,0,0,1-.375-.074,1.068,1.068,0,0,1-.313-.2.914.914,0,0,1-.215-.295A.865.865,0,0,1-165.971-32.394Z" transform="translate(827.98 478.194)"/></g></svg>