<svg xmlns="http://www.w3.org/2000/svg" xmlns:xlink="http://www.w3.org/1999/xlink" width="113" height="108" viewBox="0 0 113 108">
  <defs>
    <linearGradient id="linear-gradient" x1="0.5" y1="0.409" x2="0.5" y2="1" gradientUnits="objectBoundingBox">
      <stop offset="0" stop-color="#ffbe1a"/>
      <stop offset="1" stop-color="#d59800"/>
    </linearGradient>
    <linearGradient id="linear-gradient-2" x1="0.5" y1="0.637" x2="0.511" y2="0.969" gradientUnits="objectBoundingBox">
      <stop offset="0" stop-color="#0089ff"/>
      <stop offset="1" stop-color="#0068c1"/>
    </linearGradient>
    <clipPath id="clip-Artboard_8">
      <rect width="113" height="108"/>
    </clipPath>
  </defs>
  <g id="Artboard_8" data-name="Artboard – 8" clip-path="url(#clip-Artboard_8)">
    <rect width="113" height="108" fill="#fff"/>
    <g id="Group_5754" data-name="Group 5754" transform="translate(-9122.552 -1164)">
      <path id="Path_6095" data-name="Path 6095" d="M26.945,33.642l-2.456-.975c1.41-3.553,2.774-8.878,1.27-14.068a13.981,13.981,0,0,0-1.549-3.481,10.956,10.956,0,0,1-2.1,5.136c-1.661,2.1-3.91,4.26-9.575,3.326-1.81-.3-4.3-2.23-5.343-4.944-.79-2.063-1.074-5.342,2.059-9.252,1.892-2.361,5.124-2.805,7.519-2.433A12.71,12.71,0,0,1,21.5,8.735,8.126,8.126,0,0,0,17.92,3.7,9.889,9.889,0,0,0,9.58,3.409a32.424,32.424,0,0,0-8,4.859L0,6.15A34.406,34.406,0,0,1,8.679.925a12.492,12.492,0,0,1,10.58.5A10.922,10.922,0,0,1,24.4,10.285c.014.268.025.547.034.835A16.4,16.4,0,0,1,28.3,17.864C30.01,23.772,28.507,29.7,26.945,33.642ZM15.212,9.473a4.9,4.9,0,0,0-3.894,1.563C9.432,13.39,8.875,15.629,9.665,17.69a5.539,5.539,0,0,0,3.3,3.282c4.258.7,5.722-.652,7.072-2.359,1.385-1.75,1.728-4.226,1.755-6.382a10.682,10.682,0,0,0-5.428-2.67A7.579,7.579,0,0,0,15.212,9.473Z" transform="translate(9205.759 1189.352)" fill="#1e394c"/>
      <path id="Path_6096" data-name="Path 6096" d="M0,3.013,4.889,0l3.87,4.668L3.72,8.324Z" transform="translate(9201.484 1193.292)" fill="#1e394c"/>
      <path id="Path_6097" data-name="Path 6097" d="M92.137.783l-.26-.371L89.956,0,55.739,5.268H3.859l-.311,1.2-2.288.077A1.2,1.2,0,0,0,0,7.618,1.142,1.142,0,0,0,1.1,8.674C52.164,14.041,90.631,9,90.631,9V8.882a13.651,13.651,0,0,0,1.506-6.228C92.566.988,92.462,1.245,92.137.783Z" transform="translate(9123.596 1235.823)" fill="#1e394c"/>
      <path id="Path_6098" data-name="Path 6098" d="M91.683,33.59l-.014-.058C89.959,26.4,85.092,8.375,77.933.39c0,0-4.893-.37-11.172-.389C60.18-.018,52.073.352,46.482,1.953,35.551,5.079,20.267,11.679,10.888,26.095c-.245.381-.491.751-.725,1.118C5.6,34.243,2.85,38.728,1.252,41.42c-.457.77-.819,1.393-1.1,1.886A1.135,1.135,0,0,0,1.043,45c.582.049,1.3.108,2.139.174H3.2c12.256.974,50.281,3.636,69.352.891,0,0,.087-.174.268-.48a19.118,19.118,0,0,1,16.7-9.286A2.2,2.2,0,0,0,91.683,33.59ZM64.922,22.625c-6.913,4.493-15.779,7.249-27.412,5.822a6.869,6.869,0,0,1-4.988-3.036,3.731,3.731,0,0,1,.087-4.621c2.715-3.508,17.867-12.029,29.518-9.537a7.826,7.826,0,0,1,5.384,3.987C68.581,17.312,68.8,20.106,64.922,22.625Z" transform="translate(9123.552 1195.915)" fill="url(#linear-gradient)"/>
      <path id="Path_6099" data-name="Path 6099" d="M91.67,0A142.12,142.12,0,0,0,73.3,2.666C61.74,4.98,50.585,9.309,25.7,9.024,14.108,8.891,5.066,7.94,1.253,7.887.8,8.658.434,9.281.152,9.774a1.134,1.134,0,0,0,.89,1.7c9.069.755,51.119,4,71.507,1.066,0,0,17.286-.717,19.12-2.761,2.378-2.657.352-8.311.013-9.718Z" transform="translate(9123.552 1229.448)" fill="url(#linear-gradient-2)"/>
      <path id="Path_6100" data-name="Path 6100" d="M58.576,6.049S41.091,3.769,30.07,9.089,14.231,22.013,14.231,22.013,6.256,25.959,0,27.212c.234-.366.48-.736.725-1.118C10.1,11.679,25.388,5.079,36.318,1.953,41.91.352,50.017-.018,56.6,0Z" transform="translate(9133.716 1195.915)" fill="url(#linear-gradient-2)"/>
      <path id="Path_6101" data-name="Path 6101" d="M18.791,1.281C19.019,2.613,15,4.42,9.818,5.317S.242,5.865.009,4.533,3.8,1.395,8.982.5,18.558-.05,18.791,1.281Z" transform="translate(9164.736 1220.001)" fill="#1e394c"/>
      <path id="Path_6102" data-name="Path 6102" d="M9.819,4.931C4.631,5.833.24,5.479.01,4.15A.941.941,0,0,1,.278,3.4c1.669.536,4.961.529,8.661-.113C13.194,2.549,16.668,1.2,17.642,0c.672.215,1.08.517,1.148.9C19.016,2.228,15,4.036,9.819,4.931Z" transform="translate(9164.737 1220.386)" fill="#4d5c7d"/>
    </g>
  </g>
</svg>
