<svg xmlns="http://www.w3.org/2000/svg" width="31" height="31" viewBox="0 0 31 31"><defs><style>.a{fill:#fff;}</style></defs><path class="a" d="M15.5,0A15.5,15.5,0,1,0,31,15.5,15.5,15.5,0,0,0,15.5,0ZM11,23.432H7.221V12.075H11ZM9.109,10.524H9.084A1.967,1.967,0,1,1,9.134,6.6a1.968,1.968,0,1,1-.025,3.924Zm15.5,12.908H20.833V17.356c0-1.527-.547-2.568-1.912-2.568a2.066,2.066,0,0,0-1.937,1.381,2.585,2.585,0,0,0-.124.921v6.342H13.085s.049-10.292,0-11.357H16.86v1.608a3.748,3.748,0,0,1,3.4-1.875c2.484,0,4.346,1.623,4.346,5.111Zm0,0"/></svg>