<svg xmlns="http://www.w3.org/2000/svg" width="216.923" height="52.56" viewBox="0 0 216.923 52.56">
  <g id="Group_5805" data-name="Group 5805" transform="translate(-8011 9132.632)">
    <g id="Group_5546" data-name="Group 5546" transform="translate(8082.22 -9128.959)">
      <path id="Subtraction_1" data-name="Subtraction 1" d="M141.215,28.489a10.71,10.71,0,0,1-2.5-.3,5.891,5.891,0,0,1-2.077-.946,4.444,4.444,0,0,1-1.391-1.688,5.8,5.8,0,0,1-.5-2.523v-4.2c2.3-.645,4.176-1.217,5.564-1.7v3.335a11.439,11.439,0,0,0,.074,1.354,2.716,2.716,0,0,0,.334,1.057,1.7,1.7,0,0,0,.8.686,3.519,3.519,0,0,0,1.29.244l.138,0a9.611,9.611,0,0,0,1.169-.093l.076,0a1.02,1.02,0,0,1,1.018,1.019V27.2a.987.987,0,0,1-.736.959,8.448,8.448,0,0,1-1.193.218,17.8,17.8,0,0,1-1.966.111Zm-103.027,0h-.066a8.359,8.359,0,0,1-2.4-.352,6.1,6.1,0,0,1-2.059-1.057,5.106,5.106,0,0,1-1.41-1.743,5.354,5.354,0,0,1-.52-2.411,6.77,6.77,0,0,1,.144-1.437,4.634,4.634,0,0,1,.431-1.2,5.173,5.173,0,0,1,1.558-1.781,7.719,7.719,0,0,1,2.245-1.1,16.429,16.429,0,0,1,2.614-.575,25.1,25.1,0,0,1,2.708-.222c.465-.013.912-.022,1.328-.028.03,0,.06,0,.089-.005a57.681,57.681,0,0,1,6.143.495c.049.6.07,1.2.063,1.8v8.175a.988.988,0,0,1-.986.986H44.924a.988.988,0,0,1-.986-.986V25.78h-.074A5.231,5.231,0,0,1,41.4,27.857a8.479,8.479,0,0,1-3.209.631Zm4.377-8.346c-.416,0-.947.019-1.577.056a8,8,0,0,0-1.818.315,4.021,4.021,0,0,0-1.483.78,1.657,1.657,0,0,0-.459.622,2.112,2.112,0,0,0-.153.825,1.592,1.592,0,0,0,.853,1.483,3.573,3.573,0,0,0,1.781.482h.016a5.573,5.573,0,0,0,1.561-.223,4.689,4.689,0,0,0,1.354-.631,3.062,3.062,0,0,0,.946-1.039,3,3,0,0,0,.352-1.483V20.7a.559.559,0,0,0-.558-.558Zm15.986,8.345a14.172,14.172,0,0,1-3.821-.538,7.1,7.1,0,0,1-2.468-1.208.96.96,0,0,1-.379-.683,1,1,0,0,1,.253-.764l1.985-2.2a1,1,0,0,1,.738-.329.981.981,0,0,1,.656.251,5.608,5.608,0,0,0,1.052.744,4.674,4.674,0,0,0,2.1.5h.175a5.148,5.148,0,0,0,1.673-.279,1.238,1.238,0,0,0,.585-.394,1,1,0,0,0,.195-.626,1.112,1.112,0,0,0-.172-.617,1.31,1.31,0,0,0-.515-.441,7.53,7.53,0,0,0-1.743-.594c-.7-.16-1.464-.335-2.263-.52a9.36,9.36,0,0,1-2.263-.835A4.747,4.747,0,0,1,52.6,18.38a3.578,3.578,0,0,1-.413-.845c1.872.283,3.975.666,5.922,1.077,2.2.465,5.992,1.567,8.571,2.368a6.827,6.827,0,0,1-.009,3.162,4.234,4.234,0,0,1-.57,1.284,5.83,5.83,0,0,1-1.947,1.818,8.349,8.349,0,0,1-2.671.964A15.906,15.906,0,0,1,58.551,28.487Zm69.377-.444h-3.582a.992.992,0,0,1-.991-.991V21.773c.607-.145,2.8-.673,5.564-1.38v6.659A.992.992,0,0,1,127.928,28.043Zm-20.548,0h-3.585a.991.991,0,0,1-.99-.989v-2.08c1.747-.158,3.827-.41,5.564-.673v2.753A.991.991,0,0,1,107.38,28.043Zm-11.8,0H92a.991.991,0,0,1-.99-.989V25.177c.64.008,2.9.034,5.086.034h.478v1.843A.991.991,0,0,1,95.584,28.043Zm-9.5,0H82.5a.992.992,0,0,1-.991-.99V24.4c1.3.211,3.169.4,5.565.567v2.082A.991.991,0,0,1,86.087,28.043Zm-11.8,0H70.708a.992.992,0,0,1-.991-.99v-5.1c2.169.654,4.614,1.19,5.564,1.39v3.712A.991.991,0,0,1,74.291,28.043Zm-50.566,0H19.666a.993.993,0,0,1-.948-.7L15.7,17.687c1.363-.17,1.847-.214,3.138-.332.439-.04.984-.09,1.7-.157l1.219,4.13h.074l1.307-4.381c1.426-.135,3.227-.241,5.351-.314L24.661,27.383A1,1,0,0,1,23.725,28.043Zm-12.7,0H6.87a1,1,0,0,1-.932-.651l-2.382-6.5c.773-.246,2.806-.886,4.988-1.521l.636,1.961h.074l.638-2.346c2.108-.59,3.7-.977,4.73-1.15L11.98,27.316a.993.993,0,0,1-.957.726Zm84.561-3.306c-.241,0-.458-.006-.817-.015-.6-.015-1.6-.041-3.758-.066V.99A.991.991,0,0,1,92,0h3.585a.991.991,0,0,1,.989.99V12.463h.074a3.332,3.332,0,0,1,.631-1.039,4.938,4.938,0,0,1,1.076-.927,5.865,5.865,0,0,1,1.483-.668,6.348,6.348,0,0,1,1.8-.26h.056a10.317,10.317,0,0,1,1.91.162,5.78,5.78,0,0,1,1.5.487,4.93,4.93,0,0,1,2.022,1.8,7.278,7.278,0,0,1,.983,2.708,20.623,20.623,0,0,1,.26,3.376V23.8c-1.476.232-5.15.546-5.564.581V19.215c0-.517-.019-1.06-.056-1.613a5.083,5.083,0,0,0-.334-1.539,2.393,2.393,0,0,0-2.5-1.595,3.447,3.447,0,0,0-1.743.39,2.654,2.654,0,0,0-1.02,1.039,4.229,4.229,0,0,0-.464,1.465,12.692,12.692,0,0,0-.111,1.706v5.651C96.08,24.732,95.821,24.737,95.584,24.737Zm-8.507-.222h0c-2.843-.173-4.839-.456-5.565-.57V19.215c0-.519-.019-1.062-.056-1.613a5.083,5.083,0,0,0-.334-1.539,2.393,2.393,0,0,0-2.5-1.595,3.448,3.448,0,0,0-1.743.39,2.653,2.653,0,0,0-1.02,1.038,4.23,4.23,0,0,0-.463,1.465,12.707,12.707,0,0,0-.111,1.706v3.74c-1.88-.359-4.987-1.266-5.018-1.275l-.546-.164V.991A.992.992,0,0,1,70.708,0h3.583a.992.992,0,0,1,.99.991V12.463h.074a3.333,3.333,0,0,1,.631-1.039,4.938,4.938,0,0,1,1.076-.927,5.864,5.864,0,0,1,1.483-.668,6.348,6.348,0,0,1,1.8-.26H80.4a10.317,10.317,0,0,1,1.91.162,5.781,5.781,0,0,1,1.5.487,4.93,4.93,0,0,1,2.022,1.8,7.278,7.278,0,0,1,.983,2.708,20.64,20.64,0,0,1,.26,3.376v6.414Zm36.277-3.375V11.007a.992.992,0,0,1,.991-.991h3.582a.992.992,0,0,1,.991.991v8.829c-2.11.5-4.594,1.081-5.564,1.305ZM3.385,20.423.062,11.35a.993.993,0,0,1,.932-1.334H4.787a.991.991,0,0,1,.945.686l2.637,8.124c-2.192.665-4.215,1.338-4.983,1.6Zm63.1-.025h0l-3.115-.931c-1.774-.53-3.622-1.013-5.492-1.435-1.937-.437-3.9-.81-5.85-1.109a6.691,6.691,0,0,1-.113-1.27,6.468,6.468,0,0,1,.162-1.484,4.82,4.82,0,0,1,.487-1.261,5.7,5.7,0,0,1,1.707-1.892A7.36,7.36,0,0,1,56.7,9.922a11.146,11.146,0,0,1,2.776-.352h.007a13.051,13.051,0,0,1,3.6.52A6.648,6.648,0,0,1,65.3,11.182a.995.995,0,0,1,.1,1.5l-1.961,1.938a.991.991,0,0,1-.7.289.971.971,0,0,1-.618-.222,3.775,3.775,0,0,0-1.191-.669,4.384,4.384,0,0,0-1.42-.223,3.048,3.048,0,0,0-1.373.334,1.164,1.164,0,0,0-.5.454,1.369,1.369,0,0,0-.167.7.991.991,0,0,0,.172.58,1.244,1.244,0,0,0,.515.4,9.1,9.1,0,0,0,1.743.556c.717.164,1.478.338,2.263.52a8.5,8.5,0,0,1,2.263.871,5.087,5.087,0,0,1,1.743,1.614,3.434,3.434,0,0,1,.308.571Zm-56.41-2.075h0l2.061-7.575a1,1,0,0,1,.958-.732h4.582a.993.993,0,0,1,.952.712l1.752,5.936c-1.9.155-3.578.315-4.855.461l-.332-1.063h-.074L14.8,17.212l-.1.013a35.875,35.875,0,0,0-4.623,1.1Zm124.67-.027h0V15.458a.992.992,0,0,0-.991-.991h-1.578a.993.993,0,0,1-.991-.991V11.007a.993.993,0,0,1,.991-.991h1.578a.993.993,0,0,0,.991-.991V5.665a.993.993,0,0,1,.991-.991h3.581a.992.992,0,0,1,.991.991V9.024a.993.993,0,0,0,.992.991h2.913a.993.993,0,0,1,.991.991v2.468a.993.993,0,0,1-.991.991H141.3a.993.993,0,0,0-.992.991v1.18C139.6,16.854,137.093,17.613,134.743,18.3Zm-85.8-1.787h0c-1.663-.191-3.316-.327-4.911-.4l-.416-.02a.97.97,0,0,0,.026-.911,2.839,2.839,0,0,0-.757-.948,3.821,3.821,0,0,0-2.427-.872h-.148a5.446,5.446,0,0,0-2.433.574,6.854,6.854,0,0,0-1.36.919,1,1,0,0,1-.651.244.975.975,0,0,1-.7-.3L33.63,13.228a.99.99,0,0,1-.278-.771.979.979,0,0,1,.393-.709,10.2,10.2,0,0,1,2.773-1.455,12.964,12.964,0,0,1,4.273-.723h.03a14.987,14.987,0,0,1,2.23.153,8.538,8.538,0,0,1,1.794.459,5.857,5.857,0,0,1,2.523,1.8,6.933,6.933,0,0,1,1.317,2.912c.107.532.191,1.075.252,1.615Zm-25.651-.066h0l1.706-5.718a.993.993,0,0,1,.951-.709h3.491a.993.993,0,0,1,.935,1.326l-1.7,4.785c-1.554.068-3.415.177-5.38.316Zm102.8-8.874h0a3.108,3.108,0,0,1-2.233-.946,3.11,3.11,0,0,1-.946-2.282,3.109,3.109,0,0,1,.946-2.281,3.109,3.109,0,0,1,2.233-.946h.1a3.109,3.109,0,0,1,2.233.946,3.109,3.109,0,0,1,.946,2.281,3.109,3.109,0,0,1-.946,2.281,3.109,3.109,0,0,1-2.234.947h-.1Z" transform="translate(0)" fill="#fff" stroke="rgba(0,0,0,0)" stroke-width="1"/>
      <path id="Path_5992" data-name="Path 5992" d="M-297.14-34.419l1.357-3.672h.759l-2.22,5.6a2.294,2.294,0,0,1-.508.816,1.212,1.212,0,0,1-.887.3q-.142,0-.289-.009a1.145,1.145,0,0,1-.289-.057l.066-.607a1.01,1.01,0,0,0,.474.1.67.67,0,0,0,.522-.209,1.822,1.822,0,0,0,.332-.588l.323-.854-1.822-4.5h.788Zm6.528-1.452a1.992,1.992,0,0,0-.119-.693,1.664,1.664,0,0,0-.337-.56,1.581,1.581,0,0,0-.527-.375,1.694,1.694,0,0,0-.7-.138,1.694,1.694,0,0,0-.7.138,1.532,1.532,0,0,0-.522.375,1.708,1.708,0,0,0-.332.56,1.993,1.993,0,0,0-.119.693,1.992,1.992,0,0,0,.119.693,1.708,1.708,0,0,0,.332.56,1.532,1.532,0,0,0,.522.375,1.694,1.694,0,0,0,.7.138,1.694,1.694,0,0,0,.7-.138,1.581,1.581,0,0,0,.527-.375,1.665,1.665,0,0,0,.337-.56A1.992,1.992,0,0,0-290.611-35.871Zm.683,0a2.424,2.424,0,0,1-.175.93,2.239,2.239,0,0,1-.489.74,2.226,2.226,0,0,1-.745.489,2.51,2.51,0,0,1-.954.176,2.483,2.483,0,0,1-.944-.176,2.226,2.226,0,0,1-.745-.489,2.239,2.239,0,0,1-.489-.74,2.422,2.422,0,0,1-.176-.93,2.422,2.422,0,0,1,.176-.93,2.238,2.238,0,0,1,.489-.74,2.226,2.226,0,0,1,.745-.489,2.483,2.483,0,0,1,.944-.176,2.51,2.51,0,0,1,.954.176,2.226,2.226,0,0,1,.745.489,2.239,2.239,0,0,1,.489.74A2.424,2.424,0,0,1-289.928-35.871Zm4.147,2.22q-.019-.18-.024-.356t0-.356h-.019a1.457,1.457,0,0,1-.266.332,1.746,1.746,0,0,1-.36.261,1.969,1.969,0,0,1-.422.171,1.65,1.65,0,0,1-.441.062,1.62,1.62,0,0,1-1.262-.451,1.85,1.85,0,0,1-.408-1.286v-2.818h.626v2.458a3.358,3.358,0,0,0,.057.655,1.241,1.241,0,0,0,.194.479.854.854,0,0,0,.37.294,1.487,1.487,0,0,0,.584.1,2.4,2.4,0,0,0,.266-.038,1.156,1.156,0,0,0,.46-.209,1.507,1.507,0,0,0,.432-.512,1.969,1.969,0,0,0,.19-.949v-2.277h.626v3.463q0,.18.014.455t.033.522Zm7.126-2.22a1.992,1.992,0,0,0,.119.693,1.665,1.665,0,0,0,.337.56,1.582,1.582,0,0,0,.527.375,1.694,1.694,0,0,0,.7.138,1.806,1.806,0,0,0,.707-.138,1.745,1.745,0,0,0,.565-.375,1.7,1.7,0,0,0,.37-.56,1.8,1.8,0,0,0,.133-.693,1.8,1.8,0,0,0-.133-.693,1.7,1.7,0,0,0-.37-.56,1.745,1.745,0,0,0-.565-.375,1.806,1.806,0,0,0-.707-.138,1.694,1.694,0,0,0-.7.138,1.582,1.582,0,0,0-.527.375,1.664,1.664,0,0,0-.337.56A1.992,1.992,0,0,0-278.656-35.871Zm4.052,2.22h-.626v-.74h-.019a1.631,1.631,0,0,1-.361.389,2.24,2.24,0,0,1-.436.266,2.089,2.089,0,0,1-.47.152,2.394,2.394,0,0,1-.46.047,2.509,2.509,0,0,1-.954-.176,2.224,2.224,0,0,1-.745-.489,2.237,2.237,0,0,1-.489-.74,2.422,2.422,0,0,1-.175-.93,2.422,2.422,0,0,1,.175-.93,2.236,2.236,0,0,1,.489-.74,2.224,2.224,0,0,1,.745-.489,2.509,2.509,0,0,1,.954-.176,2.4,2.4,0,0,1,.46.047,2.09,2.09,0,0,1,.47.152,2.24,2.24,0,0,1,.436.266,1.631,1.631,0,0,1,.361.389h.019v-3.473h.626Zm1.233-3.055q0-.294-.014-.6t-.024-.788h.617v.826h.019a1.378,1.378,0,0,1,.19-.346,1.485,1.485,0,0,1,.3-.3,1.467,1.467,0,0,1,.408-.213,1.6,1.6,0,0,1,.527-.081,1.7,1.7,0,0,1,.465.057l-.123.617a1.054,1.054,0,0,0-.361-.047,1.287,1.287,0,0,0-.617.138,1.367,1.367,0,0,0-.427.351,1.46,1.46,0,0,0-.251.46,1.524,1.524,0,0,0-.081.474v2.505h-.626Zm6.519.835a1.992,1.992,0,0,0-.119-.693,1.666,1.666,0,0,0-.337-.56,1.583,1.583,0,0,0-.527-.375,1.694,1.694,0,0,0-.7-.138,1.694,1.694,0,0,0-.7.138,1.531,1.531,0,0,0-.522.375,1.707,1.707,0,0,0-.332.56,1.992,1.992,0,0,0-.119.693,1.992,1.992,0,0,0,.119.693,1.707,1.707,0,0,0,.332.56,1.531,1.531,0,0,0,.522.375,1.694,1.694,0,0,0,.7.138,1.7,1.7,0,0,0,.7-.138,1.583,1.583,0,0,0,.527-.375,1.666,1.666,0,0,0,.337-.56A1.992,1.992,0,0,0-266.852-35.871Zm.683,0a2.422,2.422,0,0,1-.176.93,2.238,2.238,0,0,1-.489.74,2.227,2.227,0,0,1-.745.489,2.509,2.509,0,0,1-.954.176,2.483,2.483,0,0,1-.944-.176,2.224,2.224,0,0,1-.745-.489,2.235,2.235,0,0,1-.489-.74,2.42,2.42,0,0,1-.176-.93,2.42,2.42,0,0,1,.176-.93,2.235,2.235,0,0,1,.489-.74,2.224,2.224,0,0,1,.745-.489,2.483,2.483,0,0,1,.944-.176,2.509,2.509,0,0,1,.954.176,2.227,2.227,0,0,1,.745.489,2.238,2.238,0,0,1,.489.74A2.422,2.422,0,0,1-266.168-35.871Zm4.991,0a1.99,1.99,0,0,0-.119-.693,1.665,1.665,0,0,0-.337-.56,1.583,1.583,0,0,0-.527-.375,1.694,1.694,0,0,0-.7-.138,1.8,1.8,0,0,0-.712.138,1.758,1.758,0,0,0-.56.375,1.7,1.7,0,0,0-.37.56,1.8,1.8,0,0,0-.133.693,1.8,1.8,0,0,0,.133.693,1.7,1.7,0,0,0,.37.56,1.758,1.758,0,0,0,.56.375,1.8,1.8,0,0,0,.712.138,1.7,1.7,0,0,0,.7-.138,1.583,1.583,0,0,0,.527-.375,1.665,1.665,0,0,0,.337-.56A1.99,1.99,0,0,0-261.177-35.871Zm-4.052-2.22h.626v.74h.019a1.63,1.63,0,0,1,.361-.389,2.24,2.24,0,0,1,.437-.266,2.087,2.087,0,0,1,.47-.152,2.4,2.4,0,0,1,.46-.047,2.509,2.509,0,0,1,.954.176,2.226,2.226,0,0,1,.745.489,2.237,2.237,0,0,1,.489.74,2.422,2.422,0,0,1,.176.93,2.422,2.422,0,0,1-.176.93,2.237,2.237,0,0,1-.489.74,2.226,2.226,0,0,1-.745.489,2.509,2.509,0,0,1-.954.176,2.394,2.394,0,0,1-.46-.047,2.086,2.086,0,0,1-.47-.152,2.24,2.24,0,0,1-.437-.266,1.63,1.63,0,0,1-.361-.389h-.019v3.473h-.626Zm8.948-1.708a.421.421,0,0,1-.142.327.458.458,0,0,1-.313.128.458.458,0,0,1-.313-.128.421.421,0,0,1-.142-.327.421.421,0,0,1,.142-.327.458.458,0,0,1,.313-.128.458.458,0,0,1,.313.128A.421.421,0,0,1-256.281-39.8Zm-.142,6.149h-.626v-4.441h.626Zm3.606-3.871H-254.1V-34.9a1.424,1.424,0,0,0,.047.4.569.569,0,0,0,.133.242.458.458,0,0,0,.2.119.966.966,0,0,0,.261.033,1.239,1.239,0,0,0,.332-.047,1.537,1.537,0,0,0,.313-.123l.028.579a2.012,2.012,0,0,1-.845.161,1.58,1.58,0,0,1-.375-.047.884.884,0,0,1-.356-.18.993.993,0,0,1-.266-.361,1.448,1.448,0,0,1-.1-.6v-2.8h-.939v-.569h.939v-1.253h.626v1.253h1.281Zm1.224,5.2h-.636l.636-2.23h.769Zm4.5-5.769,1.025,3.606h.019l1.186-3.606h.645l1.186,3.606h.019l1.025-3.606h.74l-1.4,4.441h-.7l-1.177-3.644h-.019l-1.177,3.644h-.7l-1.4-4.441Zm9.916,1.879a1.421,1.421,0,0,0-.38-1.03,1.407,1.407,0,0,0-1.063-.394,1.515,1.515,0,0,0-.588.119,1.656,1.656,0,0,0-.5.318,1.594,1.594,0,0,0-.342.455,1.174,1.174,0,0,0-.128.531Zm-3.017.512a1.9,1.9,0,0,0,.161.626,1.655,1.655,0,0,0,.351.508,1.652,1.652,0,0,0,.5.337,1.534,1.534,0,0,0,.617.123,1.583,1.583,0,0,0,.868-.232,1.737,1.737,0,0,0,.555-.536l.484.4a2.407,2.407,0,0,1-.878.721,2.454,2.454,0,0,1-1.03.218,2.362,2.362,0,0,1-.916-.176,2.145,2.145,0,0,1-.726-.489,2.315,2.315,0,0,1-.479-.74,2.422,2.422,0,0,1-.176-.93,2.481,2.481,0,0,1,.171-.93,2.251,2.251,0,0,1,.474-.74,2.181,2.181,0,0,1,.712-.489,2.209,2.209,0,0,1,.882-.176,2.164,2.164,0,0,1,.9.18,2,2,0,0,1,.669.479,2.05,2.05,0,0,1,.413.7,2.562,2.562,0,0,1,.142.859v.285Zm6.168-2.505h1.234l.949,3.264h.019l.977-3.264h1.215l.987,3.264h.019l.968-3.264h1.186l-1.575,4.555h-1.158l-1.034-3.188h-.019l-1.025,3.188h-1.158Zm10.9,3.976h-.028a1.271,1.271,0,0,1-.55.5,1.866,1.866,0,0,1-.863.195,2.478,2.478,0,0,1-.574-.071,1.708,1.708,0,0,1-.55-.237,1.38,1.38,0,0,1-.418-.436,1.257,1.257,0,0,1-.166-.669,1.134,1.134,0,0,1,.289-.816,1.871,1.871,0,0,1,.745-.465,4.2,4.2,0,0,1,1.011-.213q.555-.052,1.086-.052v-.114a.7.7,0,0,0-.308-.631,1.3,1.3,0,0,0-.735-.2,1.648,1.648,0,0,0-.693.152,1.864,1.864,0,0,0-.55.37l-.588-.693a2.569,2.569,0,0,1,.9-.541,3.057,3.057,0,0,1,1.03-.18,2.53,2.53,0,0,1,1,.171,1.63,1.63,0,0,1,.622.446,1.6,1.6,0,0,1,.318.617,2.667,2.667,0,0,1,.09.683v2.771h-1.063Zm-.019-1.5h-.256q-.275,0-.579.024a2.512,2.512,0,0,0-.56.1,1.2,1.2,0,0,0-.427.228.5.5,0,0,0-.171.4.485.485,0,0,0,.071.27.547.547,0,0,0,.185.176.826.826,0,0,0,.256.095,1.448,1.448,0,0,0,.285.028,1.187,1.187,0,0,0,.892-.313,1.174,1.174,0,0,0,.3-.854Zm4.706-1.262a1.314,1.314,0,0,0-.418-.346,1.175,1.175,0,0,0-.579-.147,1.109,1.109,0,0,0-.5.114.392.392,0,0,0-.228.38.381.381,0,0,0,.251.375,4.6,4.6,0,0,0,.735.223,4.142,4.142,0,0,1,.517.152,1.888,1.888,0,0,1,.474.251,1.24,1.24,0,0,1,.346.389,1.121,1.121,0,0,1,.133.565,1.468,1.468,0,0,1-.157.707,1.331,1.331,0,0,1-.417.47,1.758,1.758,0,0,1-.607.261,3.148,3.148,0,0,1-.716.081,2.844,2.844,0,0,1-1.034-.195,2.186,2.186,0,0,1-.835-.555l.75-.7a1.5,1.5,0,0,0,.493.408,1.413,1.413,0,0,0,.674.161,1.157,1.157,0,0,0,.251-.028.857.857,0,0,0,.237-.09.491.491,0,0,0,.176-.166.468.468,0,0,0,.066-.256.421.421,0,0,0-.261-.408,4.206,4.206,0,0,0-.783-.247,3.764,3.764,0,0,1-.5-.147,1.626,1.626,0,0,1-.432-.237,1.1,1.1,0,0,1-.3-.365,1.16,1.16,0,0,1-.114-.541,1.3,1.3,0,0,1,.157-.655,1.344,1.344,0,0,1,.413-.451,1.854,1.854,0,0,1,.579-.261,2.584,2.584,0,0,1,.664-.085,2.8,2.8,0,0,1,.963.171,1.626,1.626,0,0,1,.745.522Zm4.052-1.347a1.714,1.714,0,0,1,.764.157,1.506,1.506,0,0,1,.522.413,1.67,1.67,0,0,1,.3.588,2.476,2.476,0,0,1,.095.683v2.847h-1.139v-2.505a3.123,3.123,0,0,0-.029-.413,1.187,1.187,0,0,0-.119-.389.776.776,0,0,0-.256-.289.767.767,0,0,0-.441-.114,1.01,1.01,0,0,0-.474.1.982.982,0,0,0-.332.28,1.25,1.25,0,0,0-.2.394,1.523,1.523,0,0,0-.066.446v2.486H-216.9v-7.173h1.139v3.255h.019a1.092,1.092,0,0,1,.194-.28,1.535,1.535,0,0,1,.3-.247,1.564,1.564,0,0,1,.389-.176A1.623,1.623,0,0,1-214.388-38.338Zm5.342,0a1.714,1.714,0,0,1,.764.157,1.506,1.506,0,0,1,.522.413,1.671,1.671,0,0,1,.3.588,2.477,2.477,0,0,1,.095.683v2.847h-1.139v-2.505a3.128,3.128,0,0,0-.028-.413,1.189,1.189,0,0,0-.119-.389.776.776,0,0,0-.256-.289.767.767,0,0,0-.441-.114,1.01,1.01,0,0,0-.474.1.982.982,0,0,0-.332.28,1.251,1.251,0,0,0-.2.394,1.523,1.523,0,0,0-.066.446v2.486h-1.139v-7.173h1.139v3.255h.019a1.094,1.094,0,0,1,.194-.28,1.535,1.535,0,0,1,.3-.247,1.565,1.565,0,0,1,.389-.176A1.623,1.623,0,0,1-209.046-38.338Zm5,.133h1.139v4.555h-1.139Zm-.161-1.547a.656.656,0,0,1,.2-.479.7.7,0,0,1,.517-.2.753.753,0,0,1,.527.195.633.633,0,0,1,.214.489.633.633,0,0,1-.214.489.753.753,0,0,1-.527.195.7.7,0,0,1-.517-.2A.656.656,0,0,1-204.207-39.752Zm1.831,2.458v-.911h.8v-1.319h1.12v1.319h1.139v.911h-1.139v2.116a1.039,1.039,0,0,0,.109.5q.109.2.489.2a1.408,1.408,0,0,0,.247-.024,1,1,0,0,0,.237-.071l.038.892a1.871,1.871,0,0,1-.361.09,2.54,2.54,0,0,1-.4.033,1.819,1.819,0,0,1-.74-.128,1.122,1.122,0,0,1-.451-.351,1.3,1.3,0,0,1-.228-.512,2.978,2.978,0,0,1-.062-.622v-2.125Zm7.354,1.537h-1.139v-4.612h1.139Zm-1.328,1.442a.7.7,0,0,1,.223-.522.739.739,0,0,1,.536-.218.762.762,0,0,1,.531.209.668.668,0,0,1,.228.512.7.7,0,0,1-.223.522.739.739,0,0,1-.536.218.749.749,0,0,1-.289-.057.825.825,0,0,1-.242-.152.707.707,0,0,1-.166-.228A.668.668,0,0,1-196.35-34.315Z" transform="translate(339.666 75.492)" fill="#fff"/>
    </g>
    <g id="Group_5757" data-name="Group 5757" transform="translate(8011 -9132.632)">
      <g id="Group_5679" data-name="Group 5679" transform="translate(0 0)">
        <g id="Group_5506" data-name="Group 5506" transform="translate(0 0)">
          <circle id="Ellipse_2" data-name="Ellipse 2" cx="26.28" cy="26.28" r="26.28" fill="#1283e5"/>
          <circle id="Ellipse_4" data-name="Ellipse 4" cx="17.52" cy="17.52" r="17.52" transform="translate(8.76 8.76)" fill="#00c8f0"/>
          <path id="Path_5757" data-name="Path 5757" d="M185.244,181.807a17.508,17.508,0,0,1,17.3,14.892,17.52,17.52,0,1,0-34.6,0A17.508,17.508,0,0,1,185.244,181.807Z" transform="translate(-158.964 -167.791)" fill="#00afe1"/>
          <path id="Path_5761" data-name="Path 5761" d="M278.911,299.242a1.752,1.752,0,0,1,1.252,2.978,13.972,13.972,0,0,1-4.005,2.858,1.752,1.752,0,1,1-1.5-3.165,10.49,10.49,0,0,0,3-2.145A1.747,1.747,0,0,1,278.911,299.242Z" transform="translate(-243.871 -266.132)" fill="#00ebff"/>
          <path id="Path_5762" data-name="Path 5762" d="M195.948,287.832a1.75,1.75,0,0,1,1.5.848,10.472,10.472,0,0,0,7.51,4.992,1.752,1.752,0,0,1-.5,3.468,13.958,13.958,0,0,1-10.015-6.652,1.752,1.752,0,0,1,1.5-2.656Z" transform="translate(-180.184 -256.987)" fill="#00dcff"/>
          <path id="Path_5763" data-name="Path 5763" d="M171.093,158.9a21.024,21.024,0,1,0,21.024,21.024A21.024,21.024,0,0,0,171.093,158.9Zm0,38.543a17.52,17.52,0,1,1,16.744-22.687,3.5,3.5,0,0,0-2.728,3.415v3.5a3.5,3.5,0,0,0,2.728,3.415A17.527,17.527,0,0,1,171.093,197.44Z" transform="translate(-144.813 -153.641)" fill="#005dad"/>
        </g>
      </g>
      <g id="Group_5680" data-name="Group 5680" transform="translate(14.271 19.081)">
        <path id="Subtraction_1-2" data-name="Subtraction 1" d="M18.77,14.262H15.559a.783.783,0,0,1-.75-.55L12.258,5.55c1.239.365,2.788.865,4.364,1.4l.589,2h.059l.479-1.606c.547.193,1,.357,1.386.5.62.23,1.365.475,2.214.727L19.511,13.74A.787.787,0,0,1,18.77,14.262Zm-10.049,0H5.435a.788.788,0,0,1-.737-.515L.867,3.291c1.629.178,2.919.411,3.862.581l.614.11.326.058L7.263,8.951h.059L8.5,4.609c.77.169,1.523.345,2.239.523.3.074.648.168,1.042.281L9.477,13.688A.787.787,0,0,1,8.721,14.262Zm12.774-6.1h0c-.694-.215-1.216-.387-1.221-.389s-.438-.149-2.409-.815l1.91-6.4A.789.789,0,0,1,20.526,0h2.762a.776.776,0,0,1,.642.333.776.776,0,0,1,.1.716L21.5,8.164ZM16.487,6.5h0l-1.608-.542c-.9-.3-1.827-.593-2.762-.862l-.1-.307h-.059l-.068.244c-1.068-.3-2.169-.587-3.272-.843L9.6.58A.787.787,0,0,1,10.358,0h3.625a.79.79,0,0,1,.753.564l1.75,5.93ZM5.507,3.541h0c-1.621-.3-3.235-.525-4.8-.684l-.659-1.8A.777.777,0,0,1,.143.335.775.775,0,0,1,.786,0h3a.782.782,0,0,1,.748.543l.972,3Z" transform="translate(0 0)" fill="#fff" stroke="rgba(0,0,0,0)" stroke-width="1"/>
      </g>
    </g>
  </g>
</svg>
