<svg xmlns="http://www.w3.org/2000/svg" xmlns:xlink="http://www.w3.org/1999/xlink" width="20" height="16.364" viewBox="0 0 20 16.364"><defs><style>.a,.b{fill:#ab5df3;}.b{clip-rule:evenodd;}.c{clip-path:url(#a);}.d{clip-path:url(#b);}.e{clip-path:url(#c);}.f{clip-path:url(#d);}.g{clip-path:url(#e);}</style><clipPath id="a"><path class="a" d="M619-432.288c0,.009,0,.018,0,.027v10.9a2.733,2.733,0,0,1-2.727,2.727H601.727A2.733,2.733,0,0,1,599-421.364v-10.9c0-.009,0-.018,0-.027A2.733,2.733,0,0,1,601.727-435h14.545A2.733,2.733,0,0,1,619-432.288Zm-1.915-.39a.915.915,0,0,0-.812-.5H601.727a.914.914,0,0,0-.812.5L609-427.019Zm.1,2.152-7.661,5.362a.909.909,0,0,1-1.043,0l-7.66-5.362v9.163a.915.915,0,0,0,.909.909h14.545a.914.914,0,0,0,.909-.909Z"/></clipPath><clipPath id="b"><path class="a" d="M598-416.182h21.818V-438H598Z" transform="translate(-598 438)"/></clipPath><clipPath id="c"><rect class="a" width="30" height="25.454"/></clipPath><clipPath id="d"><path class="a" d="M598-418.637h21.818V-435H598Z" transform="translate(-598 435)"/></clipPath><clipPath id="e"><path class="b" d="M598-438h21.818v21.818H598Z" transform="translate(-598 438)"/></clipPath></defs><g class="c" transform="translate(-599 435)"><g class="d" transform="translate(598.091 -437.727)"><g class="e" transform="translate(-3.636 -1.818)"><g class="f" transform="translate(3.636 4.545)"><path class="a" d="M594-440h29.091v25.454H594Z" transform="translate(-597.636 435.455)"/></g><g class="g" transform="translate(3.636 1.818)"><g class="f" transform="translate(0 2.727)"><path class="a" d="M593-443h30.909v30.909H593Z" transform="translate(-597.545 435.727)"/></g></g></g></g></g></svg>