<svg xmlns="http://www.w3.org/2000/svg" width="186.123" height="84.352" viewBox="0 0 186.123 84.352"><defs><style>.a{fill:#fff;}.b,.c{fill:#d1281d;}.c{stroke:rgba(0,0,0,0);}</style></defs><g transform="translate(-730 -880)"><rect class="a" width="186.124" height="84.352" rx="4" transform="translate(730 880)"/><g transform="translate(750.58 873.019)"><path class="b" d="M38.168,29.148H61.529c-.752-1.308-3.048-2.261-4.4-2.785a19.889,19.889,0,0,0-14.321-.095C41.368,26.836,38.968,27.753,38.168,29.148Z" transform="translate(-20.028)"/><path class="b" d="M16.356,60.71H48.037a11.263,11.263,0,0,0-1.561-3.44c-.214-.32-.455-.842-.843-.992a6.925,6.925,0,0,0-2.077-.048H20.6a5.808,5.808,0,0,0-1.84.048c-.41.16-.655.719-.88,1.072A11.411,11.411,0,0,0,16.356,60.71Z" transform="translate(-2.376 -25.241)"/><path class="c" d="M55.165,23.289a11.7,11.7,0,0,1-2.31-.231A11.644,11.644,0,0,1,55.14,0a11.731,11.731,0,0,1,2.31.231,11.644,11.644,0,0,1-2.284,23.058ZM55.086,7.4h0a4.283,4.283,0,0,0-.675.055,4,4,0,0,0-1.52.6,3.8,3.8,0,0,0-1.626,2.055,4.2,4.2,0,0,0-.015,2.463A4.411,4.411,0,0,0,52.6,14.709a3.707,3.707,0,0,0,2.429.895,4.228,4.228,0,0,0,.661-.053,4.416,4.416,0,0,0,1.68-.641,3.822,3.822,0,0,0,1.638-4.426,4.145,4.145,0,0,0-3.923-3.078ZM11.642,23.288A11.642,11.642,0,0,1,3.41,3.412,11.642,11.642,0,0,1,19.875,19.877,11.566,11.566,0,0,1,11.642,23.288ZM11.506,7.414a4.316,4.316,0,0,0-.617.045,4.209,4.209,0,0,0-1.6.582,3.856,3.856,0,0,0-1.637,2.064,4.15,4.15,0,0,0-.017,2.454A4.07,4.07,0,0,0,11.482,15.6a4.312,4.312,0,0,0,.608-.044,4.147,4.147,0,0,0,1.6-.586,3.859,3.859,0,0,0,1.706-4.479A4.1,4.1,0,0,0,11.506,7.414Z" transform="translate(63.894 36.844)"/><path class="b" d="M390.509,87.715l5.62,11.2,2.089,4.16.051,2.32v4.88h8.24l-.08-4.72.051-2.4,1.689-3.36,3.46-6.88,1.7-3.36.86-1.92h-6.08c-.546,0-1.768-.227-2.209.128a5.429,5.429,0,0,0-.931,1.712q-.843,1.686-1.706,3.36a6.743,6.743,0,0,1-.994,1.76l-.889-1.92-1.611-3.2-.972-1.758-2.129-.082h-4.08Z" transform="translate(-305.166 -50.646)"/><path class="b" d="M13.5,89.616l-.08,4.48h32.8l-.08-4.48Z" transform="translate(0 -52.307)"/><path class="b" d="M15.936,122.753a14.9,14.9,0,0,0,1.6,4.56c1.8-.43,4.065-.08,5.92-.08H42.577a16.24,16.24,0,0,1,3.6.08,12.971,12.971,0,0,0,1.6-4.56Z" transform="translate(-2.036 -79.124)"/><path class="c" d="M108.161,17.823h0a1.325,1.325,0,0,1-1.116-.435.978.978,0,0,1-.088-.636c0-.069.009-.134.009-.192.125.052.249.113.37.171a2.361,2.361,0,0,0,1.023.32,1.292,1.292,0,0,0,.287-.032.737.737,0,0,0,.521-.387.4.4,0,0,0-.07-.388,1.85,1.85,0,0,0-.968-.565,1.715,1.715,0,0,1-1.083-.719,1.133,1.133,0,0,1-.106-1.136c.324-.539,1.244-.6,1.624-.6a3.6,3.6,0,0,1,1.283.214v.8a2.638,2.638,0,0,1-.506-.187,3.479,3.479,0,0,0-.374-.151,1.122,1.122,0,0,0-.292-.033c-.352,0-.779.1-.885.329-.055.118-.016.256.114.411a2.773,2.773,0,0,0,1.006.611c.49.215,1,.437,1.151.858a1.225,1.225,0,0,1-.138.962A2.041,2.041,0,0,1,108.161,17.823Zm-9.175-.036a2.2,2.2,0,0,1-2.037-2.068,2.188,2.188,0,0,1,1.456-2.548,2.338,2.338,0,0,1,.637-.093,2.208,2.208,0,0,1,2.056,2.076A2.191,2.191,0,0,1,99.6,17.7,2.288,2.288,0,0,1,98.986,17.786Zm.062-3.96a1.35,1.35,0,0,0-.4.065,1.566,1.566,0,0,0-.885,1.82A1.4,1.4,0,0,0,99,17.05a1.376,1.376,0,0,0,.44-.078,1.576,1.576,0,0,0,.851-1.83A1.4,1.4,0,0,0,99.048,13.826ZM94.339,17.77a2.248,2.248,0,0,1-2.117-2.182,2.1,2.1,0,0,1,1.543-2.427,2.413,2.413,0,0,1,.512-.057,2.276,2.276,0,0,1,2.133,2.205,2.1,2.1,0,0,1-1.6,2.413A2.374,2.374,0,0,1,94.339,17.77Zm-.007-3.944a1.36,1.36,0,0,0-.407.066,1.565,1.565,0,0,0-.873,1.82c.1.668.521,1.342,1.226,1.342a1.309,1.309,0,0,0,.446-.084,1.606,1.606,0,0,0,.848-1.861A1.378,1.378,0,0,0,94.332,13.825Zm11.833,3.934h-.8v-3.04h-.079l-1.2,2h-.16l-1.2-2h-.08v2.96l-.8.08V14.24c0-.059,0-.13-.009-.2-.023-.358-.053-.847.33-.9a.5.5,0,0,1,.058,0c.56,0,1.062.912,1.465,1.645a5.994,5.994,0,0,0,.4.665v-.006c.375-.865,1-2.313,2.079-2.314v4.639Zm-17.041,0H88.4v-4.64h.032c.165,0,.341-.007.527-.015.213-.009.432-.018.652-.018a2.93,2.93,0,0,1,1.5.308,1.175,1.175,0,0,1,.585,1.188,1.552,1.552,0,0,1-1.051,1.259l1.2,1.84a1.764,1.764,0,0,1-.193.011c-.682,0-.99-.454-1.289-.893a1.558,1.558,0,0,0-1.159-.879l-.08,1.84Zm.655-4.034a.617.617,0,0,0-.5.242,1.6,1.6,0,0,0-.1.946c.008.107.016.207.016.285.105,0,.213,0,.318,0s.215,0,.322,0c.129,0,.228,0,.32-.009.625-.049.708-.344.7-.515A1.2,1.2,0,0,0,89.78,13.726ZM16,17.2h-5.52l-.931-.08-.83-1.2L6.8,12.72H20.241l-1.5,2.511-1.312,1.921ZM6.219,10.9a.969.969,0,0,1-.509-.1,2.406,2.406,0,0,1-.651-.934c-.048-.1-.093-.188-.136-.266C4.762,9.3,4.565,9,4.357,8.67A7.413,7.413,0,0,1,3.2,6.319l3.68.08h13.28l3.681-.08A18.826,18.826,0,0,1,22.455,9.1c-.108.19-.212.374-.309.549-.029.051-.058.107-.09.166a2.731,2.731,0,0,1-.725.983.928.928,0,0,1-.488.1c-.1,0-.194-.006-.287-.011s-.164-.01-.235-.01H6.8c-.079,0-.167.006-.26.011S6.327,10.9,6.219,10.9ZM2.894,4.611a1.548,1.548,0,0,1-.632-.1c-.247-.111-.42-.5-.559-.814-.043-.1-.083-.187-.12-.258-.112-.212-.232-.428-.359-.656A10.741,10.741,0,0,1,0,0H27.041a8.713,8.713,0,0,1-1.1,2.547c-.174.312-.338.606-.482.893-.034.07-.07.153-.108.242-.136.317-.3.712-.569.83a1.488,1.488,0,0,1-.593.093c-.167,0-.338-.012-.5-.024-.148-.01-.287-.02-.408-.02H3.92c-.136,0-.294.012-.461.024C3.273,4.6,3.081,4.611,2.894,4.611Z" transform="translate(16.299 49.95)"/><path class="b" d="M85.146,255.72c.878,1.508,1.8,2.845,2.64,4.08h.16c.842-1.248,1.749-2.6,2.64-4.08Z" transform="translate(-58.046 -186.73)"/></g></g></svg>