<svg xmlns="http://www.w3.org/2000/svg" xmlns:xlink="http://www.w3.org/1999/xlink" width="21.889" height="21.927" viewBox="0 0 21.889 21.927"><defs><style>.a,.b{fill:#ab5df3;}.b{clip-rule:evenodd;}.c{clip-path:url(#a);}.d{clip-path:url(#b);}.e{clip-path:url(#c);}.f{clip-path:url(#d);}.g{clip-path:url(#e);}</style><clipPath id="a"><path class="a" d="M1431.888-77.08a1,1,0,0,0-.851-1.039,13.854,13.854,0,0,1-3.031-.755,1,1,0,0,0-1.051.221l-1.27,1.27a1,1,0,0,1-1.2.162,17,17,0,0,1-6.375-6.375,1,1,0,0,1,.162-1.2l1.266-1.266a1,1,0,0,0,.224-1.057,13.793,13.793,0,0,1-.753-3.02A1,1,0,0,0,1418-91h-3a1,1,0,0,0-.738.326.992.992,0,0,0-.258.749,18.794,18.794,0,0,0,2.919,8.239,18.517,18.517,0,0,0,5.7,5.7,18.774,18.774,0,0,0,8.176,2.913,1,1,0,0,0,.766-.259,1,1,0,0,0,.324-.745Zm-7.617-1.717,1.2-.162c-.219-.125-.436-.255-.648-.391Zm9.617,4.713a3,3,0,0,1-.972,2.223,3.009,3.009,0,0,1-2.316.775,20.775,20.775,0,0,1-9.058-3.22,20.487,20.487,0,0,1-6.3-6.3,20.806,20.806,0,0,1-3.227-9.124,3,3,0,0,1,.772-2.293A3,3,0,0,1,1415-93h2.99a3,3,0,0,1,3,2.589,11.806,11.806,0,0,0,.644,2.589,3,3,0,0,1-.679,3.169l-.717.717a15,15,0,0,0,4.586,4.586l.721-.721a3,3,0,0,1,3.163-.676,11.854,11.854,0,0,0,2.6.647,3,3,0,0,1,2.58,3.031Z"/></clipPath><clipPath id="b"><path class="a" d="M1411-70h24V-94h-24Z"/></clipPath><clipPath id="c"><rect class="a" width="32" height="32" transform="translate(1407 -98)"/></clipPath><clipPath id="d"><path class="a" d="M1411-71h23V-94h-23Z"/></clipPath><clipPath id="e"><path class="b" d="M1411-94h24v24h-24Z"/></clipPath></defs><g class="c" transform="translate(-1412 93)"><g class="d"><g class="e"><g class="f"><path class="a" d="M1407-98h31.889v31.927H1407Z"/></g><g class="g"><g class="f"><path class="a" d="M1406-99h34v34h-34Z"/></g></g></g></g></g></svg>