<svg xmlns="http://www.w3.org/2000/svg" width="61.341" height="51.303" viewBox="0 0 61.341 51.303"><defs><style>.a{fill:#69b9ff;}</style></defs><path class="a" d="M56.444-384.965C41.62-383.773,32.76-374.912,32.76-360.94v23c0,2.726,1.534,4.26,4.26,4.26H55.763c2.726,0,4.26-1.534,4.26-4.26v-18.743c0-2.726-1.534-4.26-4.26-4.26H47.413c0-8.179,2.726-12.1,9.2-13.12,2.215-.341,3.408-1.363,3.408-3.408v-4.26C60.022-383.943,58.83-385.136,56.444-384.965Zm34.248,10.9c2.215-.341,3.408-1.363,3.408-3.408v-4.26c0-2.215-1.193-3.408-3.578-3.237C75.7-383.773,66.838-374.912,66.838-360.94v23c0,2.726,1.534,4.26,4.26,4.26H89.84c2.726,0,4.26-1.534,4.26-4.26v-18.743c0-2.726-1.534-4.26-4.26-4.26H81.491C81.491-369.119,84.218-373.038,90.692-374.06Z" transform="translate(-32.76 384.981)"/></svg>