<svg xmlns="http://www.w3.org/2000/svg" xmlns:xlink="http://www.w3.org/1999/xlink" width="232" height="232" viewBox="0 0 232 232"><defs><style>.a{fill:#fff;stroke:#e4e4e4;}.b{fill:url(#a);}.c{fill:url(#b);}.d{fill:#e59f6a;}.e{fill:#f29f5c;}.f{fill:url(#d);}.g{fill:url(#f);}.h{fill:#ebeef2;}.i{stroke:none;}.j{fill:none;}</style><linearGradient id="a" x1="0.5" x2="0.5" y2="1" gradientUnits="objectBoundingBox"><stop offset="0" stop-color="#f29f5c"/><stop offset="1" stop-color="#e57d29"/></linearGradient><linearGradient id="b" x1="0.5" x2="0.5" y2="1" gradientUnits="objectBoundingBox"><stop offset="0" stop-color="#f9c295"/><stop offset="1" stop-color="#ffb171"/></linearGradient><linearGradient id="d" x1="0.145" y1="0.047" x2="0.911" y2="1" gradientUnits="objectBoundingBox"><stop offset="0" stop-color="#ffdf8e"/><stop offset="1" stop-color="#f4af00"/></linearGradient><linearGradient id="f" x1="0.227" y1="0.183" x2="1" y2="0.965" gradientUnits="objectBoundingBox"><stop offset="0" stop-color="#0089ff"/><stop offset="1" stop-color="#0068c1"/></linearGradient></defs><g transform="translate(-1100 -2928)"><g class="a" transform="translate(1100 2928)"><circle class="i" cx="116" cy="116" r="116"/><circle class="j" cx="116" cy="116" r="115.5"/></g><g transform="translate(1151 2903.19)"><path class="b" d="M200.35,150.134l-3.322-26.986-6.225.766,0,0-12.069-6.792a7.273,7.273,0,0,0-4.236-.9l-19.056,1.762a7.271,7.271,0,0,0-5.618,3.587L136.4,144.682a3.2,3.2,0,0,0,1.634,4.594l.549.207a11.916,11.916,0,0,0,3.229.721l-1.7,1.482-3.4,2.966-9.684,8.26a4.137,4.137,0,0,0-.4,5.838l.982,1.125a5.317,5.317,0,0,0,7.5.512l3.7,4.245a5.308,5.308,0,0,0,7.5.512l3.7,4.245a5.32,5.32,0,0,0,7.5.516l2.009,1.736a5.32,5.32,0,0,0,7.5.515l2.731-2.383,22.961-17.883.025-.023,9.059-.009Z" transform="translate(-93.517 -10.702)"/><path class="c" d="M158.3,169.7,146,159.094l-3.421-2.948-2.448-2.108-10.525-9.073,1.216-10.347a7.141,7.141,0,0,0-5.188-7.716l-22.943-6.349a5.31,5.31,0,0,0-6.142,2.7l-2.885,5.632-12.385-.841-3.172,27-1.379,11.735,12.055.8.025.023,25.185,21.709,2.745,2.368a5.319,5.319,0,0,0,7.5-.557l3.673-4.262a5.32,5.32,0,0,0,7.5-.557l3.673-4.266a5.308,5.308,0,0,0,7.5-.554l3.677-4.266a5.317,5.317,0,0,0,7.5-.554l.976-1.131A4.137,4.137,0,0,0,158.3,169.7Z" transform="translate(-57.129 -13.813)"/><g transform="translate(57.948 152.657)"><path class="d" d="M270.1,304.114l-3.747-3.231a4.392,4.392,0,0,1-.182,5.508l-1.036,1.2a5.645,5.645,0,0,1-7.959.588l-3.9,4.528a5.635,5.635,0,0,1-7.959.588l-3.9,4.529a5.647,5.647,0,0,1-7.964.591l-3.9,4.525a5.607,5.607,0,0,1-2.675,1.725l1.66,1.432a5.319,5.319,0,0,0,7.5-.557l3.673-4.262a5.32,5.32,0,0,0,7.5-.557l3.673-4.266a5.308,5.308,0,0,0,7.5-.554l3.677-4.266a5.317,5.317,0,0,0,7.5-.554l.976-1.131A4.137,4.137,0,0,0,270.1,304.114Z" transform="translate(-226.872 -300.883)"/><path class="d" d="M340.618,319.118l-6.741-5.812a1.916,1.916,0,1,0-2.5,2.9l6.729,5.8,1.268-1.471a5.3,5.3,0,0,0,1.665.968A1.917,1.917,0,0,0,340.618,319.118Z" transform="translate(-304.188 -309.786)"/><path class="d" d="M299.256,341.994a1.915,1.915,0,0,0-.4-2.421l-6.056-5.221a1.916,1.916,0,0,0-2.5,2.9l6.056,5.221.008.006,1.251-1.453A5.3,5.3,0,0,0,299.256,341.994Z" transform="translate(-273.604 -325.457)"/></g><g transform="translate(29.856 105.481)"><path class="e" d="M119.313,299.629l-1.459,1.927a4.766,4.766,0,0,0,.922,6.677h0a4.766,4.766,0,0,0,6.677-.922l1.459-1.927a4.766,4.766,0,0,0-.922-6.677h0A4.766,4.766,0,0,0,119.313,299.629Z" transform="translate(-116.887 -251.366)"/><path class="e" d="M150.352,315.5l-2.748,3.629a4.766,4.766,0,0,0,.922,6.677h0a4.766,4.766,0,0,0,6.677-.922l2.748-3.629a4.766,4.766,0,0,0-.922-6.677h0A4.766,4.766,0,0,0,150.352,315.5Z" transform="translate(-139.038 -263.181)"/><path class="e" d="M181.1,332.871l-3.745,4.945a4.766,4.766,0,0,0,.922,6.677h0a4.766,4.766,0,0,0,6.677-.922l3.745-4.945a4.766,4.766,0,0,0-.922-6.677h0A4.766,4.766,0,0,0,181.1,332.871Z" transform="translate(-161.189 -276.117)"/><path class="e" d="M211.065,354.277l-3.963,5.232a4.766,4.766,0,0,0,.922,6.677h0a4.766,4.766,0,0,0,6.677-.922l3.963-5.232a4.766,4.766,0,0,0-.922-6.677h0A4.766,4.766,0,0,0,211.065,354.277Z" transform="translate(-183.34 -292.056)"/><path class="b" d="M221.019,123.91l-12.069-6.792a7.273,7.273,0,0,0-4.236-.9l-19.056,1.762a7.271,7.271,0,0,0-5.617,3.587L166.61,144.682a3.2,3.2,0,0,0,1.634,4.594l.549.207a11.943,11.943,0,0,0,13.69-3.9l5.146-6.7s12.37,14.322,25.989-2.4" transform="translate(-153.587 -116.183)"/></g><path class="f" d="M426.366,154.769l-6.312-51.276a1.915,1.915,0,0,0-2.135-1.667l-14.76,1.817a7.013,7.013,0,0,0-6.1,7.808l5.069,41.174a7,7,0,0,0,7.808,6.1L424.7,156.9A1.916,1.916,0,0,0,426.366,154.769Z" transform="translate(-295.604 -0.001)"/><path class="f" d="M439.789,290.665l-.693-5.628a2,2,0,0,1-1.413.864l-15.473,1.9a7.335,7.335,0,0,1-7.174-3.48l.516,4.2a7,7,0,0,0,7.808,6.1l14.76-1.817A1.916,1.916,0,0,0,439.789,290.665Z" transform="translate(-309.027 -135.898)"/><path class="g" d="M23.223,103.641l-14.76-1.817a1.915,1.915,0,0,0-2.135,1.667L.015,154.768A1.916,1.916,0,0,0,1.682,156.9l14.76,1.817a7,7,0,0,0,7.808-6.1l5.069-41.174A7.013,7.013,0,0,0,23.223,103.641Z" transform="translate(0 0)"/><path class="g" d="M.015,290.665l.693-5.628a2,2,0,0,0,1.413.864l15.473,1.9a7.335,7.335,0,0,0,7.174-3.48l-.516,4.2a7,7,0,0,1-7.808,6.1L1.682,292.8A1.916,1.916,0,0,1,.015,290.665Z" transform="translate(0 -135.898)"/><g transform="translate(8.35 142.854)"><circle class="h" cx="3.703" cy="3.703" r="3.703" transform="translate(106.462)"/><circle class="h" cx="3.703" cy="3.703" r="3.703"/></g></g></g></svg>