<svg xmlns="http://www.w3.org/2000/svg" xmlns:xlink="http://www.w3.org/1999/xlink" width="31.459" height="32.064" viewBox="0 0 31.459 32.064"><defs><style>.a{fill:url(#a);}</style><linearGradient id="a" x1="0.02" y1="0.233" x2="1" y2="0.964" gradientUnits="objectBoundingBox"><stop offset="0" stop-color="#ae5cf3"/><stop offset="1" stop-color="#1283e5"/></linearGradient></defs><path class="a" d="M15.729,0A15.884,15.884,0,0,0,0,16.032,15.884,15.884,0,0,0,15.729,32.064,15.884,15.884,0,0,0,31.459,16.032,15.884,15.884,0,0,0,15.729,0Zm3.832,12.024h1.083a1,1,0,0,1,0,2H19.562a4.946,4.946,0,0,1-4.815,4.008H13.187l6.186,6.3a1.016,1.016,0,0,1,0,1.417.964.964,0,0,1-.694.295.978.978,0,0,1-.7-.293l-7.865-8.016a1.015,1.015,0,0,1-.212-1.092.983.983,0,0,1,.908-.619h3.932a2.949,2.949,0,0,0,2.768-2h-6.7a1,1,0,0,1,0-2h6.7a2.949,2.949,0,0,0-2.768-2H10.814a1,1,0,0,1,0-2h9.831a1,1,0,0,1,0,2H18.653A4.986,4.986,0,0,1,19.562,12.024Z"/></svg>