<svg xmlns="http://www.w3.org/2000/svg" xmlns:xlink="http://www.w3.org/1999/xlink" width="31" height="31" viewBox="0 0 31 31"><defs><style>.a{fill:url(#a);}</style><linearGradient id="a" x1="0.02" y1="0.233" x2="1" y2="0.964" gradientUnits="objectBoundingBox"><stop offset="0" stop-color="#ae5cf3"/><stop offset="1" stop-color="#1283e5"/></linearGradient></defs><g transform="translate(-0.004)"><path class="a" d="M26.46,4.542A15.5,15.5,0,0,0,3.891,25.771l.161.129A7.384,7.384,0,0,1,.863,29.508a.6.6,0,0,0,.174,1.134,8.825,8.825,0,0,0,6.591-1.8l.032.026A15.5,15.5,0,0,0,26.46,4.542ZM20.61,22.131c-.341.348-.7.67-1.024,1.031a2.018,2.018,0,0,1-1.733.657,7.137,7.137,0,0,1-2.757-.805,14.989,14.989,0,0,1-4.98-3.9A13.757,13.757,0,0,1,7.685,15.07a5.307,5.307,0,0,1-.406-2.255,1.856,1.856,0,0,1,.573-1.237c.387-.367.747-.747,1.127-1.121a1.071,1.071,0,0,1,1.611,0c.309.3.606.606.908.908s.593.586.883.883a1.073,1.073,0,0,1,0,1.649c-.367.374-.734.747-1.115,1.108a.23.23,0,0,0-.058.3,6.5,6.5,0,0,0,1.005,1.611A11.459,11.459,0,0,0,15.03,19.47c.232.148.49.251.734.387a.221.221,0,0,0,.309-.058c.367-.38.747-.754,1.121-1.127a1.06,1.06,0,0,1,1.6,0c.606.6,1.2,1.2,1.8,1.8A1.084,1.084,0,0,1,20.61,22.131ZM14.895,12.119l.193-1.379A6.164,6.164,0,0,1,20.3,15.791l-1.372.238a4.778,4.778,0,0,0-4.033-3.911Zm7.648,3.672A8.822,8.822,0,0,0,15.075,8.55l.193-1.379a10.227,10.227,0,0,1,8.646,8.382Z" transform="translate(0)"/></g></svg>