<svg xmlns="http://www.w3.org/2000/svg" xmlns:xlink="http://www.w3.org/1999/xlink" width="42.781" height="27.391" viewBox="0 0 42.781 27.391"><defs><style>.a,.b,.c{fill:url(#a);}.b{stroke:rgba(0,0,0,0);}.c{clip-rule:evenodd;}.d{clip-path:url(#g);}.e{clip-path:url(#h);}.f{clip-path:url(#i);}.g{clip-path:url(#j);}.h{clip-path:url(#l);}</style><linearGradient id="a" x1="0.02" y1="0.233" x2="1" y2="0.964" gradientUnits="objectBoundingBox"><stop offset="0" stop-color="#ae5cf3"/><stop offset="1" stop-color="#1283e5"/></linearGradient><clipPath id="g"><path class="a" d="M257.642-73.444a2.139,2.139,0,0,1,2.139,2.139,2.139,2.139,0,0,1-2.139,2.139H219.7a2.139,2.139,0,0,1-2.139-2.139,2.139,2.139,0,0,1,2.139-2.139Zm0-11.556a2.139,2.139,0,0,1,2.139,2.139,2.139,2.139,0,0,1-2.139,2.139h-38.5A2.139,2.139,0,0,1,217-82.861,2.139,2.139,0,0,1,219.139-85Zm0,23.113a2.139,2.139,0,0,1,2.139,2.139,2.139,2.139,0,0,1-2.139,2.139h-38.5A2.139,2.139,0,0,1,217-59.748a2.139,2.139,0,0,1,2.139-2.139Z" transform="translate(0)"/></clipPath><clipPath id="h"><path class="a" d="M215-38.662h51.338V-90H215Z" transform="translate(-215 90)"/></clipPath><clipPath id="i"><rect class="b" width="64.172" height="51.338"/></clipPath><clipPath id="j"><path class="a" d="M217-55.053h42.781V-85H217Z" transform="translate(-217 85)"/></clipPath><clipPath id="l"><path class="c" d="M215-90h51.338v51.338H215Z" transform="translate(-215 90)"/></clipPath></defs><g class="d" transform="translate(-217 85)"><g class="e" transform="translate(212.722 -95.695)"><g class="f" transform="translate(-6.417)"><g class="g" transform="translate(10.695 10.695)"><path class="a" d="M212-90h64.172v51.338H212Z" transform="translate(-222.695 79.305)"/></g><g class="h" transform="translate(6.417)"><g class="g" transform="translate(4.278 10.695)"><path class="a" d="M210-95h72.728v72.728H210Z" transform="translate(-224.973 73.609)"/></g></g></g></g></g></svg>