<svg xmlns="http://www.w3.org/2000/svg" width="186.123" height="84.352" viewBox="0 0 186.123 84.352"><defs><style>.a{fill:#fff;}.b{fill:red;}</style></defs><g transform="translate(-144 -880)"><rect class="a" width="186.124" height="84.352" rx="4" transform="translate(144 880)"/><g transform="translate(157.338 904)"><path class="b" d="M17.841,23.538c-2-1.25-3.466-5.565-3.466-10.691,0-.188,0-.374.006-.559l0,0C8.831,11.418,4.82,9.027,4.717,6.2L4.7,6.233a9.074,9.074,0,0,0-2.134,5.72c0,6.12,6.718,11.134,15.239,11.578ZM0,12.4C0,5.552,8.522,0,19.034,0S38.069,5.552,38.069,12.4,29.547,24.8,19.034,24.8,0,19.248,0,12.4ZM19.034,1.789c2.03,0,3.755,3.078,4.4,7.374l0-.006c3.948-.614,6.713-2.033,6.713-3.682,0-2.215-4.975-4.007-11.11-4.007S7.924,3.261,7.924,5.475c0,1.649,2.764,3.067,6.713,3.682l0,.006c.64-4.3,2.366-7.374,4.4-7.374Zm1.229,21.742C28.784,23.087,35.5,18.073,35.5,11.953a9.079,9.079,0,0,0-2.134-5.72L33.351,6.2c-.1,2.827-4.113,5.217-9.666,6.09l0,0c0,.185.006.371.006.559,0,5.126-1.472,9.441-3.466,10.691ZM19.034,9.482c.91,0,1.793-.039,2.638-.114h0c-.421-2.754-1.443-4.7-2.638-4.7S16.818,6.616,16.4,9.37h0C17.241,9.443,18.125,9.482,19.034,9.482Zm0,10.2c1.528,0,2.774-3.18,2.841-7.168l.008,0a31.048,31.048,0,0,1-5.7,0l.009,0C16.26,16.5,17.506,19.679,19.034,19.679ZM20.126,42.4A9.478,9.478,0,1,1,29.6,51.877,9.477,9.477,0,0,1,20.126,42.4Zm9.477,6c2.923,0,5.293-2.688,5.293-6s-2.369-6-5.293-6-5.29,2.688-5.29,6S26.682,48.4,29.6,48.4Zm20.232-11.53V51.447H45.843V36.872H40.272v-3.3H55.406v3.295H49.835Zm10.4,10.555,0,0L58.7,51.447H54.037l7.372-17.871h4.97l7.373,17.871H69.088L67.556,47.43l0,0H60.236ZM63.9,44.41h2.511L63.912,37.87h-.035l-2.5,6.541H63.9Zm-87.668-7.538V51.447h-3.993V36.872h-5.571v-3.3H-18.2v3.295h-5.57Zm6.592,5.529A9.477,9.477,0,0,1-7.7,32.923,9.478,9.478,0,0,1,1.775,42.4,9.477,9.477,0,0,1-7.7,51.877,9.477,9.477,0,0,1-17.181,42.4Zm9.478,6c2.922,0,5.292-2.688,5.292-6s-2.369-6-5.292-6-5.292,2.688-5.292,6S-10.625,48.4-7.7,48.4ZM10.95,51.447h2.025V44.661l6.966-11.085H15.279L10.95,41.087,6.623,33.576H1.959L8.925,44.661v6.785H10.95Z" transform="translate(60 -8)"/></g></g></svg>