<svg xmlns="http://www.w3.org/2000/svg" width="30" height="30" viewBox="0 0 30 30">
  <g id="twitter" transform="translate(-0.001)">
    <circle id="Ellipse_51" data-name="Ellipse 51" cx="15" cy="15" r="15" transform="translate(0.001 0)" fill="#2b75ad"/>
    <g id="Group_2121" data-name="Group 2121" transform="translate(6.631 9.027)">
      <path id="Path_2065" data-name="Path 2065" d="M42.732,35.724a7.216,7.216,0,0,1-2.077.569,3.627,3.627,0,0,0,1.591-2,7.24,7.24,0,0,1-2.3.877,3.62,3.62,0,0,0-6.163,3.3A10.267,10.267,0,0,1,26.33,34.69a3.621,3.621,0,0,0,1.119,4.829,3.591,3.591,0,0,1-1.638-.453c0,.015,0,.031,0,.046a3.619,3.619,0,0,0,2.9,3.546,3.631,3.631,0,0,1-1.633.063,3.621,3.621,0,0,0,3.379,2.512,7.3,7.3,0,0,1-5.355,1.5,10.286,10.286,0,0,0,15.835-8.666c0-.157,0-.313-.011-.468a7.334,7.334,0,0,0,1.805-1.872Z" transform="translate(-25.103 -34.028)" fill="#f1f2f2"/>
    </g>
  </g>
</svg>
