<svg xmlns="http://www.w3.org/2000/svg" xmlns:xlink="http://www.w3.org/1999/xlink" width="22" height="22" viewBox="0 0 22 22"><defs><style>.a,.b,.c{fill:#1283e5;}.b{stroke:rgba(0,0,0,0);}.c{clip-rule:evenodd;}.d{clip-path:url(#a);}.e{clip-path:url(#b);}.f{clip-path:url(#c);}.g{clip-path:url(#d);}.h{clip-path:url(#e);}</style><clipPath id="a"><path class="a" d="M11-280.055V-283a1,1,0,0,1,1-1,1,1,0,0,1,1,1v2.945A9,9,0,0,0,20.945-288H18a1,1,0,0,1-1-1,1,1,0,0,1,1-1h2.945A9,9,0,0,0,13-297.945V-295a1,1,0,0,1-1,1,1,1,0,0,1-1-1v-2.945A9,9,0,0,0,3.055-290H6a1,1,0,0,1,1,1,1,1,0,0,1-1,1H3.055A9,9,0,0,0,11-280.055ZM12-278A11,11,0,0,1,1-289a11,11,0,0,1,11-11,11,11,0,0,1,11,11A11,11,0,0,1,12-278Z"/></clipPath><clipPath id="b"><path class="a" d="M0-277H24v-24H0Z"/></clipPath><clipPath id="c"><rect class="b" width="32" height="32" transform="translate(-4 -305)"/></clipPath><clipPath id="d"><path class="a" d="M1-278H23v-22H1Z"/></clipPath><clipPath id="e"><path class="c" d="M0-301H24v24H0Z"/></clipPath></defs><g class="d" transform="translate(-1 300)"><g class="e"><g class="f"><g class="g"><path class="a" d="M-4-305H28v32H-4Z"/></g><g class="h"><g class="g"><path class="a" d="M-5-306H29v34H-5Z"/></g></g></g></g></g></svg>