<svg xmlns="http://www.w3.org/2000/svg" xmlns:xlink="http://www.w3.org/1999/xlink" width="13.797" height="7.884" viewBox="0 0 13.797 7.884"><defs><style>.a,.b{fill:#1283e5;}.b{clip-rule:evenodd;}.c{clip-path:url(#a);}.d{clip-path:url(#b);}.e{clip-path:url(#c);}.f{clip-path:url(#d);}.g{clip-path:url(#e);}</style><clipPath id="a"><path class="a" d="M1569.9-477.5l-5.216-5.216a.985.985,0,0,0-1.394,0,.985.985,0,0,0,0,1.394l5.913,5.913a.985.985,0,0,0,1.393,0l5.913-5.913a.984.984,0,0,0,0-1.394.985.985,0,0,0-1.393,0Z" transform="translate(0 0)"/></clipPath><clipPath id="b"><path class="a" d="M1558-467.349h23.651V-491H1558Z" transform="translate(-1558 491)"/></clipPath><clipPath id="c"><rect class="a" width="23.651" height="23.651"/></clipPath><clipPath id="d"><path class="a" d="M1562-474.145h15.767V-484H1562Z" transform="translate(-1562 484)"/></clipPath><clipPath id="e"><path class="b" d="M1558-491h23.651v23.651H1558Z" transform="translate(-1558 491)"/></clipPath></defs><g class="c" transform="translate(-1563 483)"><g class="d" transform="translate(1558.073 -490.884)"><g class="e"><g class="f" transform="translate(3.942 6.898)"><path class="a" d="M1558-488h23.651v17.738H1558Z" transform="translate(-1561.942 484.058)"/></g><g class="g"><g class="f" transform="translate(3.942 6.898)"><path class="a" d="M1553-496h33.505v33.506H1553Z" transform="translate(-1561.869 484.175)"/></g></g></g></g></g></svg>