<svg xmlns="http://www.w3.org/2000/svg" xmlns:xlink="http://www.w3.org/1999/xlink" width="112.469" height="107.885" viewBox="0 0 112.469 107.885"><defs><style>.a{fill:url(#a);}.b{fill:#1e394c;}.c{fill:url(#b);}.d{fill:#9e31bc;}.e{fill:url(#c);}.f{fill:#4695bc;}.g{fill:url(#d);}.h{fill:#094f93;}.i{fill:#005bb2;}.j{fill:#003d77;}.k{fill:url(#e);}</style><linearGradient id="a" x1="0.227" y1="0.183" x2="1" y2="0.965" gradientUnits="objectBoundingBox"><stop offset="0" stop-color="#0089ff"/><stop offset="1" stop-color="#0068c1"/></linearGradient><linearGradient id="b" x1="0.5" x2="0.309" y2="1.037" gradientUnits="objectBoundingBox"><stop offset="0" stop-color="#ba00ff"/><stop offset="1" stop-color="#eb08a2"/></linearGradient><linearGradient id="c" x1="0.5" y1="0.409" x2="0.5" y2="1" gradientUnits="objectBoundingBox"><stop offset="0" stop-color="#ffdf8e"/><stop offset="1" stop-color="#f4af00"/></linearGradient><linearGradient id="d" x1="0.5" y1="0.637" x2="0.511" y2="0.969" xlink:href="#a"/><linearGradient id="e" x1="0.773" y1="0.183" x2="0" y2="0.965" xlink:href="#a"/></defs><g transform="translate(-40.162 -180.737)"><g transform="translate(40.162 180.737)"><path class="a" d="M3477.006,304.146s-16,.061-17.75,3.068-6.072,20-6.094,21,1.045,7.448,3.851,7.718,92.2,0,92.2,0,3.342-2.427,3.265-9-6.078-19.723-6.078-19.723-.39-1.546-8.625-2.461a87.818,87.818,0,0,0-13.454-.607s-10.475,3.684-17.855,4.568-17.494.537-20.013-1.5S3477.006,304.146,3477.006,304.146Z" transform="translate(-3446.169 -228.172)"/><path class="b" d="M3478.477,304.146s-16.991.061-18.845,3.068-6.447,20-6.47,21,1.11,7.448,4.088,7.718,97.886,0,97.886,0,3.548-2.427,3.467-9-6.454-19.723-6.454-19.723-.414-1.546-9.156-2.461a98.954,98.954,0,0,0-14.284-.607s-11.121,3.684-18.957,4.568-18.572.537-21.248-1.5S3478.477,304.146,3478.477,304.146Z" transform="translate(-3449.604 -235.107)"/><path class="c" d="M3479.476,304.152s-17.661.068-19.589,3.418-6.7,22.284-6.725,23.4,1.154,8.3,4.25,8.6,101.75,0,101.75,0,3.689-2.7,3.6-10.026-6.708-21.974-6.708-21.974-.431-1.723-9.518-2.742a96,96,0,0,0-14.847-.676s-11.56,4.1-19.705,5.089-19.306.6-22.086-1.671S3479.476,304.152,3479.476,304.152Z" transform="translate(-3451.684 -252.626)"/><path class="d" d="M10.784,0S-.2,13.632,0,21.3H2.79S4.43,8.1,10.784,0Z" transform="matrix(1, -0.017, 0.017, 1, 29.127, 65.757)"/><path class="d" d="M10.784,0S-.2,13.632,0,21.3H2.79S4.43,8.1,10.784,0Z" transform="matrix(1, -0.017, 0.017, 1, 20.111, 65.757)"/><path class="d" d="M10.784,0S-.2,13.632,0,21.3H2.79S4.43,8.1,10.784,0Z" transform="matrix(1, -0.017, 0.017, 1, 10.401, 65.757)"/><path class="d" d="M0,0S10.575,13.972,10.37,21.834H7.993S6.354,8.3,0,0Z" transform="matrix(1, -0.017, 0.017, 1, 64.982, 65.131)"/><path class="d" d="M0,0S10.575,13.972,10.37,21.834H7.993S6.354,8.3,0,0Z" transform="matrix(1, -0.017, 0.017, 1, 74.692, 65.131)"/><path class="d" d="M0,0S10.575,13.972,10.37,21.834H7.993S6.354,8.3,0,0Z" transform="matrix(1, -0.017, 0.017, 1, 85.788, 65.131)"/><path class="d" d="M6.1,0S-.1,13.767,0,21.514H2S2.842,8.178,6.1,0Z" transform="matrix(1, -0.017, 0.017, 1, 38.174, 65.599)"/><path class="d" d="M0,0S6.207,13.968,6.1,21.827h-2S3.261,8.3,0,0Z" transform="matrix(1, -0.017, 0.017, 1, 61.222, 65.197)"/><path class="d" d="M4.574,0S-.042,13.872,0,21.678H3.768S3.267,8.241,4.574,0Z" transform="matrix(1, -0.017, 0.017, 1, 45.293, 65.475)"/><path class="d" d="M0,0S4.589,13.98,4.546,21.848H.823S1.307,8.305,0,0Z" transform="matrix(1, -0.017, 0.017, 1, 55.025, 65.305)"/><path class="e" d="M3479.476,304.152s-17.661.068-19.589,3.418-6.7,22.284-6.725,23.4,1.154,8.3,4.25,8.6,101.75,0,101.75,0,3.689-2.7,3.6-10.026-6.708-21.974-6.708-21.974-.431-1.723-9.518-2.742a96,96,0,0,0-14.847-.676s-11.56,4.1-19.705,5.089-19.306.6-22.086-1.671S3479.476,304.152,3479.476,304.152Z" transform="translate(-3451.684 -270.658)"/><path class="f" d="M10.756,16.971H2.943v-.993c0-1.284,1.534-2.36,3.311-3.607A21.175,21.175,0,0,0,9.826,9.452a6.019,6.019,0,0,0,1.749-4.131,5.1,5.1,0,0,0-1.7-3.865A6.011,6.011,0,0,0,5.854,0,6.033,6.033,0,0,0,2.022,1.293,4.39,4.39,0,0,0,.373,4.735c0,1.071.424,1.592,1.3,1.592a1.755,1.755,0,0,0,1.107-.337.966.966,0,0,0,.4-.748,2.56,2.56,0,0,1,.78-1.984,2.788,2.788,0,0,1,1.892-.634A2.7,2.7,0,0,1,8.712,5.4c0,2.016-2.072,3.53-4.266,5.132S0,13.783,0,15.978v2.584a.851.851,0,0,0,.435.692,1.581,1.581,0,0,0,.837.26h9.485c.489,0,.952-.631.952-1.3S11.263,16.971,10.756,16.971Zm0,0" transform="matrix(1, 0.017, -0.017, 1, 44.084, 39.201)"/><path class="f" d="M9.313,9.209c1.317-.657,2.1-2.315,2.1-4.448C11.415,1.6,9.607,0,6.041,0a5.838,5.838,0,0,0-4.46,1.608A4.329,4.329,0,0,0,.426,4.522c0,1.01.2,1.324,1.485,1.324.922,0,1.351-.37,1.351-1.165,0-1.884,1.724-2.165,2.752-2.165,1.8,0,2.645.866,2.645,2.725,0,2.559-1.323,2.911-2.752,2.911-.579,0-.925.436-.925,1.165,0,.267.067,1.138.925,1.138a3.672,3.672,0,0,1,2.342.649,2.714,2.714,0,0,1,.889,2.236v.506c0,2.272-.988,3.284-3.2,3.284-2.158,0-3.125-1.154-3.125-2.3,0-.8-.388-1.085-1.484-1.085-1,0-1.325.3-1.325,1.218a4.4,4.4,0,0,0,1.392,3.148,6.385,6.385,0,0,0,4.516,1.561,6.613,6.613,0,0,0,4.309-1.32A5.575,5.575,0,0,0,12,13.846V13.34A4.07,4.07,0,0,0,9.313,9.209Zm0,0" transform="matrix(1, 0.017, -0.017, 1, 57.111, 39.428)"/><path class="g" d="M3480.164,304.153s-18.124.07-20.1,3.508-6.876,22.867-6.9,24.013,1.184,8.515,4.361,8.823,104.409,0,104.409,0,3.786-2.775,3.7-10.288-6.884-22.548-6.884-22.548-.441-1.768-9.766-2.814a98.515,98.515,0,0,0-15.235-.694s-11.862,4.212-20.22,5.223-19.81.614-22.664-1.715S3480.164,304.153,3480.164,304.153Z" transform="translate(-3453.162 -288.927)"/><path class="h" d="M3532.207,305.11a7.884,7.884,0,0,1-.984.578c-1.6.847-6.481,2.735-14.924,1.176-10.951-2.022-21.014-11.7-20.979-16.962s-1.576-7.843,5.455-7.67,45.454,0,45.454,0,5.17.045,3.075,6.07-11.8,13.995-13.085,14.519" transform="translate(-3467.427 -282.224)"/><path class="i" d="M3527.981,331.337a64.841,64.841,0,0,0-1.792-8.032,32.58,32.58,0,0,0-2.636-6.144l4.428-5.829a12.942,12.942,0,0,1,4.232,10.758C3531.707,329.115,3527.981,331.337,3527.981,331.337Z" transform="translate(-3476.121 -291.838)"/><path class="j" d="M3534.8,310.352s-5.585,3.62-6.027,17.343,0,14.571,0,14.571h10.357s-.386-12.368,0-18.069,1.547-6.988,1.547-6.988l-3.583-6.857Z" transform="translate(-3476.968 -290.844)"/><path class="k" d="M3553.963,315.951l11.43-13.1s-7.924.722-16.531-7.194-8.695-9.133-8.439-10.785-3.274,11.1-1.867,14.919,11.775,13.626,11.775,13.626Z" transform="translate(-3512.416 -282.992)"/><path class="a" d="M3549.47,315.332l-11.22-12.857s7.779.708,16.228-7.062,8.274-9.06,8.024-10.682,3.475,10.991,2.092,14.741-11.558,13.375-11.558,13.375Z" transform="translate(-3480.625 -282.949)"/><circle class="i" cx="1.734" cy="1.734" r="1.734" transform="translate(55.371 33.828)"/></g></g></svg>