<svg xmlns="http://www.w3.org/2000/svg" xmlns:xlink="http://www.w3.org/1999/xlink" width="20" height="22" viewBox="0 0 20 22"><defs><style>.a,.b{fill:#1283e5;}.b{clip-rule:evenodd;}.c{clip-path:url(#a);}.d{clip-path:url(#b);}.e{clip-path:url(#c);}.f{clip-path:url(#d);}.g{clip-path:url(#e);}</style><clipPath id="a"><path class="a" d="M1217-363v-3a1,1,0,0,0-1-1h-2v1a1,1,0,0,1-1,1,1,1,0,0,1-1-1v-1h-6v1a1,1,0,0,1-1,1,1,1,0,0,1-1-1v-1h-2a1,1,0,0,0-1,1v3Zm0,2h-16v9a1,1,0,0,0,1,1h14a1,1,0,0,0,1-1Zm-11-8h6v-1a1,1,0,0,1,1-1,1,1,0,0,1,1,1v1h2a3,3,0,0,1,3,3v14a3,3,0,0,1-3,3h-14a3,3,0,0,1-3-3v-14a3,3,0,0,1,3-3h2v-1a1,1,0,0,1,1-1,1,1,0,0,1,1,1Z"/></clipPath><clipPath id="b"><path class="a" d="M1197-348h24v-24h-24Z"/></clipPath><clipPath id="c"><rect class="a" width="30" height="32" transform="translate(1194 -376)"/></clipPath><clipPath id="d"><path class="a" d="M1199-349h20v-22h-20Z"/></clipPath><clipPath id="e"><path class="b" d="M1197-372h24v24h-24Z"/></clipPath></defs><g class="c" transform="translate(-1199 371)"><g class="d"><g class="e"><g class="f"><path class="a" d="M1194-376h30v32h-30Z"/></g><g class="g"><g class="f"><path class="a" d="M1192-377h34v34h-34Z"/></g></g></g></g></g></svg>