<svg xmlns="http://www.w3.org/2000/svg" xmlns:xlink="http://www.w3.org/1999/xlink" width="120.749" height="131.93" viewBox="0 0 120.749 131.93"><defs><style>.a{fill:#003d77;}.b{fill:url(#a);}.c{fill:#2a496e;}.d{fill:#f9b44d;}.e{fill:url(#b);}</style><linearGradient id="a" x1="0.5" y1="0.637" x2="0.511" y2="0.969" gradientUnits="objectBoundingBox"><stop offset="0" stop-color="#0089ff"/><stop offset="1" stop-color="#0068c1"/></linearGradient><linearGradient id="b" x1="0.773" y1="0.183" x2="0" y2="0.965" xlink:href="#a"/></defs><g transform="translate(0 0)"><rect class="a" width="40.249" height="105.096" transform="translate(40.25 26.834)"/><path class="b" d="M126.792,110.844l-24.6-6.708H93.25L82.07,155.566l-11.181-51.43H61.945l-24.6,6.708L21.695,204.76H37.348l13.416-67.083v71.555H72.973l9.1-20.125,8.864,20.125h24.678V139.913l11.181,64.847h15.653Z" transform="translate(-21.695 -77.303)"/><g transform="translate(14.416 33.305)"><path class="a" d="M78.88,129.487h0a2.237,2.237,0,0,1,3,1L93.3,153.32a2.237,2.237,0,0,1-1,3h0a2.237,2.237,0,0,1-3-1L77.88,132.486A2.234,2.234,0,0,1,78.88,129.487Z" transform="translate(-77.643 -129.251)"/><path class="a" d="M380.758,156.143l9.575-24.886a2.237,2.237,0,0,1,2.889-1.283h0a2.237,2.237,0,0,1,1.284,2.889l-9.575,24.886a2.237,2.237,0,0,1-2.889,1.283h0A2.236,2.236,0,0,1,380.758,156.143Z" transform="translate(-302.542 -129.676)"/></g><g transform="translate(6.708 87.208)"><rect class="c" width="4.472" height="4.472" transform="translate(51.43)"/><rect class="c" width="4.472" height="4.472" transform="translate(0 26.834)"/><rect class="c" width="4.472" height="4.472" transform="translate(2.237 17.888)"/><rect class="c" width="4.472" height="4.472" transform="translate(102.862 29.068)"/><rect class="c" width="4.472" height="4.472" transform="translate(100.625 20.124)"/><rect class="c" width="4.472" height="4.472" transform="translate(51.43 11.181)"/></g><g transform="translate(40.25)"><path class="d" d="M232.468,26.833H228V20.125a2.235,2.235,0,0,1,.447-1.342l6.261-8.347V8.944a4.472,4.472,0,1,0-8.944,0v2.236h-4.472V8.944a8.944,8.944,0,1,1,17.889,0v2.236a2.234,2.234,0,0,1-.447,1.342l-6.261,8.347Z" transform="translate(-210.108 0)"/><rect class="d" width="40.249" height="8.944" transform="translate(0 26.834)"/></g><g transform="translate(35.777 26.833)"><path class="e" d="M185.139,155.566,167.25,137.677l2.236-8.944h-8.944l4.472-24.6h8.944Z" transform="translate(-160.542 -104.136)"/><path class="e" d="M256,155.566l20.125-17.889-4.472-8.944H280.6l-4.472-24.6h-8.944Z" transform="translate(-231.403 -104.136)"/></g></g></svg>