<svg xmlns="http://www.w3.org/2000/svg" xmlns:xlink="http://www.w3.org/1999/xlink" width="30" height="30" viewBox="0 0 30 30"><defs><style>.a{fill:url(#a);}.b{fill:#fff;stroke:#fff;stroke-width:0.3px;}</style><linearGradient id="a" x1="0.5" y1="0.008" x2="0.5" y2="0.998" gradientUnits="objectBoundingBox"><stop offset="0" stop-color="#e09b3d"/><stop offset="0.3" stop-color="#c74c4d"/><stop offset="0.6" stop-color="#c21975"/><stop offset="1" stop-color="#7024c4"/></linearGradient></defs><g transform="translate(-9595 428)"><g transform="translate(9595 -428)"><path class="a" d="M15,0A15,15,0,1,1,0,15,15,15,0,0,1,15,0Z"/></g><g transform="translate(9602.639 -420.361)"><path class="b" d="M10.852,0H4.6A4.61,4.61,0,0,0,0,4.6v6.247a4.61,4.61,0,0,0,4.6,4.6h6.247a4.61,4.61,0,0,0,4.6-4.6V4.6A4.61,4.61,0,0,0,10.852,0ZM13.9,10.852a3.05,3.05,0,0,1-3.05,3.05H4.6a3.05,3.05,0,0,1-3.05-3.05V4.6A3.05,3.05,0,0,1,4.6,1.555h6.247A3.05,3.05,0,0,1,13.9,4.6v6.247Z"/><path class="b" d="M137,133a4,4,0,1,0,4,4A4,4,0,0,0,137,133Zm0,6.44A2.443,2.443,0,1,1,139.44,137,2.443,2.443,0,0,1,137,139.44Z" transform="translate(-129.269 -129.269)"/><circle class="b" cx="0.958" cy="0.958" r="0.958" transform="translate(10.776 2.803)"/></g></g></svg>