<svg xmlns="http://www.w3.org/2000/svg" xmlns:xlink="http://www.w3.org/1999/xlink" width="31.459" height="32.062" viewBox="0 0 31.459 32.062"><defs><style>.a{fill:url(#a);}</style><linearGradient id="a" x1="0.02" y1="0.233" x2="1" y2="0.964" gradientUnits="objectBoundingBox"><stop offset="0" stop-color="#ae5cf3"/><stop offset="1" stop-color="#1283e5"/></linearGradient></defs><g transform="translate(-1036.998 -279)"><path class="a" d="M-17281.27,831.062a15.478,15.478,0,0,1-11.123-4.695,16.072,16.072,0,0,1-4.609-11.336,16.072,16.072,0,0,1,4.609-11.335,15.476,15.476,0,0,1,11.123-4.7,15.474,15.474,0,0,1,11.119,4.7,16.081,16.081,0,0,1,4.607,11.335,16.08,16.08,0,0,1-4.607,11.336A15.469,15.469,0,0,1-17281.27,831.062Zm-6.811-20.437a.9.9,0,0,0-.717.343.922.922,0,0,0-.17.33.969.969,0,0,0-.035.243v10.206a.917.917,0,0,0,.916.916h13.545a.917.917,0,0,0,.916-.916V819.19h-5.436a1.558,1.558,0,0,1-1.559-1.554V815.6a1.555,1.555,0,0,1,.443-1.085,1.551,1.551,0,0,1,.93-.46c.066,0,.125-.009.182-.009h5.439v-2.5a.908.908,0,0,0-.262-.646.912.912,0,0,0-.65-.27h-13.543Zm9.02,4.05a.917.917,0,0,0-.916.916v2.04a.917.917,0,0,0,.916.916h5.461a.921.921,0,0,0,.295-.048.958.958,0,0,0,.322-.191.918.918,0,0,0,.3-.677v-2.04a.912.912,0,0,0-.3-.673.842.842,0,0,0-.322-.191.819.819,0,0,0-.295-.052h-5.461Zm2.4-6.416a.889.889,0,0,0-.238.03l-1.529.417-4.67,1.276h7.605l-.283-1.051A.918.918,0,0,0-17276.664,808.259Zm-3.184-1.259a.9.9,0,0,0-.406.1l-5.826,2.887h.895l6.5-1.775-.344-.7A.921.921,0,0,0-17279.848,807Zm2.242,10.254h-.3a.454.454,0,0,1-.459-.46v-.3a.433.433,0,0,1,.178-.356.442.442,0,0,1,.281-.1h.3a.457.457,0,0,1,.455.456v.3A.459.459,0,0,1-17277.605,817.254Z" transform="translate(18334 -520)"/></g></svg>