<svg xmlns="http://www.w3.org/2000/svg" xmlns:xlink="http://www.w3.org/1999/xlink" width="31" height="31.638" viewBox="0 0 31 31.638"><defs><style>.a{fill:url(#a);}</style><linearGradient id="a" x1="0.02" y1="0.233" x2="1" y2="0.964" gradientUnits="objectBoundingBox"><stop offset="0" stop-color="#ae5cf3"/><stop offset="1" stop-color="#1283e5"/></linearGradient></defs><g transform="translate(-4.92 0)"><g transform="translate(4.919 0)"><circle class="a" cx="1.376" cy="1.376" r="1.376" transform="translate(9.935 11.765)"/><circle class="a" cx="1.376" cy="1.376" r="1.376" transform="translate(18.305 17.113)"/><path class="a" d="M35.521,17.566l-.48-.655a2.064,2.064,0,0,1-.019-2.405l.467-.661a2.064,2.064,0,0,0-.713-3.008l-.713-.382A2.055,2.055,0,0,1,33.006,8.3l.136-.8A2.059,2.059,0,0,0,31.2,5.1l-.81-.032a2.067,2.067,0,0,1-1.893-1.485L28.267,2.8a2.055,2.055,0,0,0-2.794-1.316l-.746.318a2.054,2.054,0,0,1-2.347-.519l-.538-.6A2.055,2.055,0,0,0,18.757.71l-.532.609a2.061,2.061,0,0,1-2.34.551l-.752-.311a2.064,2.064,0,0,0-2.775,1.361l-.214.784a2.047,2.047,0,0,1-1.867,1.51l-.81.045A2.058,2.058,0,0,0,7.561,7.692l.149.8a2.055,2.055,0,0,1-1.024,2.172l-.707.4a2.057,2.057,0,0,0-.661,3.015l.48.655a2.064,2.064,0,0,1,.019,2.405l-.467.661A2.064,2.064,0,0,0,6.063,20.8l.713.382a2.055,2.055,0,0,1,1.057,2.159l-.136.8a2.059,2.059,0,0,0,1.945,2.4l.81.032a2.067,2.067,0,0,1,1.893,1.485l.227.778a2.055,2.055,0,0,0,2.794,1.316l.746-.318a2.054,2.054,0,0,1,2.347.519l.538.6a2.055,2.055,0,0,0,3.086-.026l.532-.609a2.061,2.061,0,0,1,2.34-.551l.752.311a2.064,2.064,0,0,0,2.775-1.361l.214-.784a2.047,2.047,0,0,1,1.867-1.51l.81-.045a2.058,2.058,0,0,0,1.906-2.431l-.149-.8a2.055,2.055,0,0,1,1.024-2.172l.707-.4A2.055,2.055,0,0,0,35.521,17.566Zm-22.5-4.434a3.19,3.19,0,1,1,3.19,3.19A3.187,3.187,0,0,1,13.019,13.131Zm3.805,8.227a.78.78,0,0,1-1.1.1h0a.78.78,0,0,1-.1-1.1l8.369-10.081a.778.778,0,1,1,1.2.992Zm7.792.331a3.19,3.19,0,1,1,3.19-3.19A3.187,3.187,0,0,1,24.617,21.689Z" transform="translate(-4.919 0)"/></g></g></svg>