<svg xmlns="http://www.w3.org/2000/svg" width="30" height="30" viewBox="0 0 30 30"><defs><style>.a{fill:#cb2027;}.b{fill:#f1f2f2;}</style></defs><g transform="translate(-0.001 -0.002)"><circle class="a" cx="15" cy="15" r="15" transform="translate(0.001 0.002)"/><g transform="translate(7.484 6.174)"><path class="b" d="M37.773,38.609c-1.176-.091-1.671-.674-2.593-1.234-.507,2.66-1.127,5.211-2.962,6.543-.567-4.021.832-7.041,1.481-10.247-1.107-1.864.133-5.616,2.469-4.692,2.875,1.137-2.489,6.931,1.112,7.655,3.759.756,5.294-6.522,2.962-8.89-3.368-3.418-9.8-.078-9.013,4.815.193,1.2,1.429,1.559.494,3.21-2.156-.477-2.8-2.178-2.716-4.444a7.254,7.254,0,0,1,6.544-6.667c4.06-.454,7.87,1.491,8.4,5.309.592,4.31-1.833,8.977-6.173,8.642Z" transform="translate(-29 -24.593)"/></g></g></svg>