<svg xmlns="http://www.w3.org/2000/svg" xmlns:xlink="http://www.w3.org/1999/xlink" width="35.377" height="35.291" viewBox="0 0 35.377 35.291"><defs><style>.a{opacity:0.646;}.b{fill:#ccf2fe;}.c{fill:#99e6fd;}.d{fill:url(#a);}</style><linearGradient id="a" x1="0.237" y1="0.176" x2="0.879" y2="1.201" gradientUnits="objectBoundingBox"><stop offset="0" stop-color="#34cdfa"/><stop offset="1" stop-color="#e8d9f1"/></linearGradient></defs><g class="a" transform="matrix(-0.017, -1, 1, -0.017, 0.383, 36.154)"><g transform="translate(2.802 0)"><path class="b" d="M207.854,13.387a1.327,1.327,0,0,0,1.024-.439A8.781,8.781,0,0,0,209.024.519a1.589,1.589,0,0,0-2.193-.146,8.781,8.781,0,0,0-.146,12.429l.146.146A1.328,1.328,0,0,0,207.854,13.387Z" transform="translate(-192.411 0)"/><path class="b" d="M36.845,122.035a8.932,8.932,0,0,0,4.387,1.17,12.794,12.794,0,0,0,2.34-.292,1.5,1.5,0,0,0,1.024-1.755A8.779,8.779,0,0,0,33.92,114.87a1.334,1.334,0,0,0-1.17,1.755A8.548,8.548,0,0,0,36.845,122.035Z" transform="translate(-32.66 -106.748)"/><path class="b" d="M43.378,274.055A8.8,8.8,0,0,0,32.558,280.2a1.386,1.386,0,0,0,1.024,1.9,12.8,12.8,0,0,0,2.34.292,8.907,8.907,0,0,0,8.481-6.58A1.388,1.388,0,0,0,43.378,274.055Z" transform="translate(-32.467 -254.966)"/><path class="b" d="M206.831,319.471a8.781,8.781,0,0,0-.146,12.429,1.589,1.589,0,0,0,2.193.146,8.781,8.781,0,0,0,.146-12.429l-.146-.146A1.414,1.414,0,0,0,206.831,319.471Z" transform="translate(-192.411 -297.165)"/><path class="b" d="M316.354,275.4a9.049,9.049,0,0,0-6.726-.877,1.5,1.5,0,0,0-1.024,1.755,8.907,8.907,0,0,0,8.481,6.58,12.791,12.791,0,0,0,2.34-.292,1.5,1.5,0,0,0,1.024-1.755A8.548,8.548,0,0,0,316.354,275.4Z" transform="translate(-289.651 -255.436)"/><path class="b" d="M308.963,122.1a12.8,12.8,0,0,0,2.34.292,8.907,8.907,0,0,0,8.481-6.58,1.5,1.5,0,0,0-1.024-1.755,8.8,8.8,0,0,0-10.821,6.141v.146A1.388,1.388,0,0,0,308.963,122.1Z" transform="translate(-288.986 -105.933)"/></g><g transform="translate(0.619 2.198)"><path class="c" d="M116.575,32.785a1.676,1.676,0,0,0-1.9,1.024,8.8,8.8,0,0,0,6.141,10.821h.585a1.761,1.761,0,0,0,1.462-1.024,8.8,8.8,0,0,0-6.141-10.821Z" transform="translate(-106.552 -32.709)"/><path class="c" d="M13.567,206.212a8.781,8.781,0,0,0-12.429-.146,1.589,1.589,0,0,0-.146,2.193,8.781,8.781,0,0,0,12.429.146l.146-.146A1.414,1.414,0,0,0,13.567,206.212Z" transform="translate(-0.619 -191.806)"/><path class="c" d="M121.777,307.321a8.779,8.779,0,0,0-6.288,10.674,1.334,1.334,0,0,0,1.755,1.17,8.779,8.779,0,0,0,6.288-10.674v-.146A1.388,1.388,0,0,0,121.777,307.321Z" transform="translate(-107.367 -288.382)"/><path class="c" d="M276.429,307.985a1.5,1.5,0,0,0-1.755,1.024,8.8,8.8,0,0,0,6.141,10.821,1.386,1.386,0,0,0,1.9-1.024,8.8,8.8,0,0,0-6.141-10.821Z" transform="translate(-255.585 -289.047)"/><path class="c" d="M330.533,206.212a8.781,8.781,0,0,0-12.429-.146l-.146.146a1.414,1.414,0,0,0,0,2.047,8.781,8.781,0,0,0,12.429.146A1.465,1.465,0,0,0,330.533,206.212Z" transform="translate(-295.798 -191.806)"/><path class="c" d="M276.805,43.977h.439A8.779,8.779,0,0,0,283.531,33.3a1.334,1.334,0,0,0-1.755-1.17,8.779,8.779,0,0,0-6.288,10.674v.146A1.4,1.4,0,0,0,276.805,43.977Z" transform="translate(-256.4 -32.056)"/></g><circle class="d" cx="8.773" cy="8.773" r="8.773" transform="translate(9.473 8.854)"/></g></svg>