<svg xmlns="http://www.w3.org/2000/svg" xmlns:xlink="http://www.w3.org/1999/xlink" width="16" height="24" viewBox="0 0 16 24"><defs><style>.a,.b{fill:#1283e5;}.b{clip-rule:evenodd;}.c{clip-path:url(#a);}.d{clip-path:url(#b);}.e{clip-path:url(#c);}.f{clip-path:url(#d);}.g{clip-path:url(#e);}</style><clipPath id="a"><path class="a" d="M1270.53-434.838l.314-3.432a3,3,0,0,1,2.986-2.73h4.346a3,3,0,0,1,3,2.729l.315,3.453A7.976,7.976,0,0,1,1284-429a7.979,7.979,0,0,1-2.53,5.838l-.314,3.432a3,3,0,0,1-3,2.73h-4.326a3,3,0,0,1-3-2.729l-.314-3.443A7.978,7.978,0,0,1,1268-429,7.979,7.979,0,0,1,1270.53-434.838Zm2.14-1.438A7.973,7.973,0,0,1,1276-437a7.974,7.974,0,0,1,3.351.733l-.167-1.823a1,1,0,0,0-1-.91h-4.349a1,1,0,0,0-.995.911Zm-.484,2.644a.925.925,0,0,1-.106.09A5.986,5.986,0,0,0,1270-429a6,6,0,0,0,6,6,5.978,5.978,0,0,0,3.814-1.368.916.916,0,0,1,.106-.09A5.986,5.986,0,0,0,1282-429a6,6,0,0,0-6-6A5.978,5.978,0,0,0,1272.186-433.632Zm.474,11.9.166,1.818a1,1,0,0,0,1,.91h4.334a1,1,0,0,0,1-.911l.166-1.813A7.971,7.971,0,0,1,1276-421,7.969,7.969,0,0,1,1272.66-421.728ZM1277-432v2.586l1.207,1.207a1,1,0,0,1,0,1.414,1,1,0,0,1-1.414,0l-1.5-1.5A1,1,0,0,1,1275-429v-3a1,1,0,0,1,1-1A1,1,0,0,1,1277-432Z"/></clipPath><clipPath id="b"><path class="a" d="M1264-417h24v-24h-24Z"/></clipPath><clipPath id="c"><rect class="a" width="26" height="35" transform="translate(1263 -446)"/></clipPath><clipPath id="d"><path class="a" d="M1268-417h16v-24h-16Z"/></clipPath><clipPath id="e"><path class="b" d="M1264-441h24v24h-24Z"/></clipPath></defs><g class="c" transform="translate(-1268 441)"><g class="d"><g class="e"><g class="f"><path class="a" d="M1263-446h26v34h-26Z"/></g><g class="g"><g class="f"><path class="a" d="M1259-446h34v34h-34Z"/></g></g></g></g></g></svg>