<svg xmlns="http://www.w3.org/2000/svg" xmlns:xlink="http://www.w3.org/1999/xlink" width="232" height="232" viewBox="0 0 232 232"><defs><style>.a{fill:#fff;stroke:#e4e4e4;}.b{fill:url(#a);}.c{fill:url(#e);}.d{fill:url(#f);}.e{stroke:none;}.f{fill:none;}</style><linearGradient id="a" x1="-0.151" y1="-0.692" x2="0.756" y2="0.5" gradientUnits="objectBoundingBox"><stop offset="0" stop-color="#f3705a"/><stop offset="1" stop-color="#e35037"/></linearGradient><linearGradient id="e" x1="0.227" y1="0.183" x2="1" y2="0.965" gradientUnits="objectBoundingBox"><stop offset="0" stop-color="#0089ff"/><stop offset="1" stop-color="#0068c1"/></linearGradient><linearGradient id="f" x1="0.145" y1="0.047" x2="0.911" y2="1" gradientUnits="objectBoundingBox"><stop offset="0" stop-color="#ffdf8e"/><stop offset="1" stop-color="#f4af00"/></linearGradient></defs><g transform="translate(-276 -2928)"><g class="a" transform="translate(276 2928)"><circle class="e" cx="116" cy="116" r="116"/><circle class="f" cx="116" cy="116" r="115.5"/></g><g transform="translate(12 3.472)"><g transform="translate(329 2978.528)"><g transform="translate(0 30.368)"><path class="b" d="M60.975,375.653l-15.26,19.621,17.611-2.2,4.4,15.41,15.41-19.813.071-.09a67.5,67.5,0,0,0-9.977-8.295A68.123,68.123,0,0,0,60.975,375.653Z" transform="translate(-45.715 -315.572)"/><path class="b" d="M332.806,375.653a68.24,68.24,0,0,0-12.257,4.623,67.339,67.339,0,0,0-9.974,8.295l15.478,19.912,4.4-15.41,17.611,2.2Z" transform="translate(-246.802 -315.572)"/><path class="b" d="M202.028,141.986H186.942l-4.663-14.347a2.2,2.2,0,0,0-4.183,0l-4.667,14.347H158.343a2.2,2.2,0,0,0-1.294,3.982l12.2,8.87-4.663,14.349a2.2,2.2,0,0,0,3.388,2.461l12.207-8.87,12.2,8.867a2.2,2.2,0,0,0,3.388-2.461l-4.663-14.349,12.2-8.87a2.2,2.2,0,0,0-1.292-3.98Z" transform="translate(-129.553 -126.125)"/><path class="b" d="M202.028,141.986H186.942l-4.663-14.347a2.2,2.2,0,0,0-4.183,0l-4.667,14.347H158.343a2.2,2.2,0,0,0-1.294,3.982l12.2,8.87-4.663,14.349a2.2,2.2,0,0,0,3.388,2.461l12.207-8.87,12.2,8.867a2.2,2.2,0,0,0,3.388-2.461l-4.663-14.349,12.2-8.87a2.2,2.2,0,0,0-1.292-3.98Z" transform="translate(-129.553 -126.125)"/></g><path class="c" d="M146.872,55.035c0-9.224,5.748-20.077,1.437-27.518C143.865,19.832,131.44,19.441,123.757,15c-7.447-4.317-13.891-15-23.115-15S84.975,10.681,77.528,14.989c-7.685,4.447-20.108,4.843-24.552,12.522-4.31,7.447,1.437,18.3,1.437,27.524s-5.748,20.077-1.437,27.518c4.445,7.685,16.869,8.077,24.552,12.522,7.447,4.317,13.891,15,23.115,15s15.667-10.681,23.115-14.989c7.685-4.447,20.108-4.843,24.552-12.522C152.62,75.112,146.872,64.259,146.872,55.035Z" transform="translate(-50.01)"/><circle class="d" cx="37.424" cy="37.424" r="37.424" transform="translate(13.208 17.611)"/><path class="c" d="M202.028,141.986H186.942l-4.663-14.347a2.2,2.2,0,0,0-4.183,0l-4.667,14.347H158.343a2.2,2.2,0,0,0-1.294,3.982l12.2,8.87-4.663,14.349a2.2,2.2,0,0,0,3.388,2.461l12.207-8.87,12.2,8.867a2.2,2.2,0,0,0,3.388-2.461l-4.663-14.349,12.2-8.87a2.2,2.2,0,0,0-1.292-3.98Z" transform="translate(-129.554 -95.757)"/><path class="c" d="M155.668,112.828c-.095-.165-.22-.306-.315-.462a105.8,105.8,0,0,1-11.469,17.413A37.4,37.4,0,0,1,81.8,167.045a106.227,106.227,0,0,1-20.033,1.92c-.238,0-.469-.015-.707-.018,4.947,6.644,16.51,7.218,23.821,11.447C92.334,184.7,98.777,195.381,108,195.381s15.667-10.681,23.115-14.989c7.685-4.447,20.108-4.843,24.552-12.522,4.31-7.447-1.437-18.3-1.437-27.524S159.979,120.269,155.668,112.828Z" transform="translate(-57.369 -85.311)"/><path class="d" d="M186.39,205.708l2.58,7.938a2.2,2.2,0,0,1-3.388,2.461l-7.4-5.376a104.974,104.974,0,0,1-31.013,11.227,37.4,37.4,0,0,0,62.086-37.272A106.225,106.225,0,0,1,186.39,205.708Z" transform="translate(-122.743 -140.218)"/><g transform="translate(14.58 65.49)"><path class="c" d="M286.762,279.929l-2.58-7.938q-3.976,2.7-8.2,5.024l7.4,5.376a2.2,2.2,0,0,0,3.388-2.461Z" transform="translate(-235.115 -271.991)"/><path class="b" d="M329.354,388.655a38.339,38.339,0,0,1,16.491,3.742l-13.039-16.764a68.234,68.234,0,0,0-12.257,4.623,67.339,67.339,0,0,0-9.974,8.295l2.793,3.595A38.274,38.274,0,0,1,329.354,388.655Z" transform="translate(-261.381 -350.679)"/><path class="b" d="M119.206,380.312a68.248,68.248,0,0,0-12.257-4.623l-.68.881A28.552,28.552,0,0,1,118.1,399.7a28.88,28.88,0,0,1-.22,3.434L129.112,388.7l.071-.09A67.538,67.538,0,0,0,119.206,380.312Z" transform="translate(-106.268 -350.721)"/></g></g></g></g></svg>