<svg xmlns="http://www.w3.org/2000/svg" xmlns:xlink="http://www.w3.org/1999/xlink" width="31.719" height="32.329" viewBox="0 0 31.719 32.329"><defs><style>.a{fill:url(#a);}.b{fill:#fff;stroke:rgba(0,0,0,0);}</style><linearGradient id="a" x1="0.02" y1="0.233" x2="1" y2="0.964" gradientUnits="objectBoundingBox"><stop offset="0" stop-color="#ae5cf3"/><stop offset="1" stop-color="#1283e5"/></linearGradient></defs><g transform="translate(-18082 881)"><g transform="translate(18082 -881)"><path class="a" d="M15.859,0A15.872,15.872,0,0,0,3.274,6.328,16.077,16.077,0,0,0,0,16.165,16.015,16.015,0,0,0,15.859,32.329,16.015,16.015,0,0,0,31.719,16.165,16.015,16.015,0,0,0,15.859,0Z"/></g><g transform="translate(18087.783 -869.909)"><path class="b" d="M15.015,11.409H12.446a.626.626,0,0,1-.6-.44L9.806,4.44c.991.292,2.23.692,3.491,1.123l.471,1.6h.047L14.2,5.876c.438.155.8.286,1.109.4.5.184,1.092.38,1.771.582l-1.471,4.133A.63.63,0,0,1,15.015,11.409Zm-8.039,0H4.348A.63.63,0,0,1,3.758,11L.694,2.632c1.3.142,2.335.329,3.089.465l.491.088.261.046L5.81,7.161h.047L6.8,3.687c.616.135,1.218.276,1.791.418.238.059.518.135.833.224L7.582,10.95A.63.63,0,0,1,6.976,11.409ZM17.2,6.532h0c-.556-.172-.973-.31-.977-.311l-1.927-.652L15.818.449A.631.631,0,0,1,16.42,0h2.21a.621.621,0,0,1,.513.266.621.621,0,0,1,.078.573L17.2,6.531ZM13.189,5.2h0L11.9,4.762c-.718-.242-1.461-.474-2.21-.69l-.077-.246H9.567l-.054.195c-.854-.243-1.735-.47-2.618-.674L7.68.464A.629.629,0,0,1,8.286,0h2.9a.632.632,0,0,1,.6.451l1.4,4.744ZM4.405,2.833h0c-1.3-.236-2.588-.42-3.837-.547L.039.845A.622.622,0,0,1,.115.268.62.62,0,0,1,.629,0h2.4a.626.626,0,0,1,.6.435l.778,2.4Z" transform="translate(0 0)"/></g></g></svg>