<svg xmlns="http://www.w3.org/2000/svg" xmlns:xlink="http://www.w3.org/1999/xlink" width="457.411" height="820.982" viewBox="0 0 457.411 820.982"><defs><style>.a{fill:#284860;}.b{fill:url(#a);}.c{fill:#0f559a;}.d{fill:#094f93;}.e{fill:url(#b);}.f{fill:#d59a08;}.g{fill:url(#d);}.h{fill:#4695bc;}.i{fill:url(#e);}.j{fill:#9e31bc;}.k{fill:#3d5b71;}.l{fill:#243e50;}.m{fill:#1e394c;}.n{fill:none;stroke:#243e50;}.o{fill:#f73478;}.p{fill:#810730;}.q{fill:#f9578f;}.r{fill:#fa7ca7;}.s{fill:#fb91b5;}.t{fill:#707487;}.u{fill:#d7deed;}.v{fill:#afb9d2;}.w{fill:#035ba7;}.x{fill:#fff;}.y{fill:#fff08c;}.z{fill:#e4eaf6;}.aa{fill:#00c8f0;}.ab{fill:#00afe1;}.ac{fill:#c7cfe2;}.ad{fill:#00ebff;}.ae{fill:#00dcff;}.af{fill:#1b6fb7;}</style><linearGradient id="a" x1="0.227" y1="0.183" x2="1" y2="0.965" gradientUnits="objectBoundingBox"><stop offset="0" stop-color="#0089ff"/><stop offset="1" stop-color="#0068c1"/></linearGradient><linearGradient id="b" x1="0.773" y1="0.183" x2="0" y2="0.965" xlink:href="#a"/><linearGradient id="d" x1="0.145" y1="0.047" x2="0.911" y2="1" gradientUnits="objectBoundingBox"><stop offset="0" stop-color="#ffdf8e"/><stop offset="1" stop-color="#f4af00"/></linearGradient><linearGradient id="e" x1="0.5" x2="0.309" y2="1.037" gradientUnits="objectBoundingBox"><stop offset="0" stop-color="#ba00ff"/><stop offset="1" stop-color="#eb08a2"/></linearGradient></defs><g transform="translate(-1218 -708.4)"><g transform="matrix(0.951, -0.309, 0.309, 0.951, -257.87, 786.943)"><path class="a" d="M2568.958,208.38l1.075-4.954-19.374-3.374-1.292,5.045Z" transform="translate(-1193.749 569.739)"/><path class="a" d="M2569.555,208.522l1.075-4.954-19.556-3.534-1.292,5.045Z" transform="translate(-1151.841 578.053)"/><g transform="translate(1355.753 454.089)"><g transform="translate(376.855 0) rotate(31)"><path class="b" d="M139.461,14.86C128.134,5.954,103.9.35,102.868.118a3.52,3.52,0,0,0-4.3,3.428c0,4.752-9.75,10.56-21.12,10.56S56.327,8.3,56.327,3.546A3.519,3.519,0,0,0,55,.794a3.436,3.436,0,0,0-2.978-.7C51,.322,26.767,5.933,15.418,14.832,3.7,24.082.36,68.659.008,73.706a3.52,3.52,0,0,0,1.985,3.407,83.467,83.467,0,0,0,26.174,7.251v74.06a3.52,3.52,0,0,0,1.873,3.1c.57.31,14.389,7.455,47.407,7.455s46.837-7.145,47.407-7.455a3.52,3.52,0,0,0,1.873-3.1V84.365a83.473,83.473,0,0,0,26.167-7.251,3.52,3.52,0,0,0,1.992-3.407C154.534,68.659,151.2,24.082,139.461,14.86Z" transform="translate(0 25.655)"/><g transform="translate(21.167 60.834)"><path class="c" d="M10.52,49.233A3.52,3.52,0,0,1,7,45.713V24.593A28.159,28.159,0,0,0,.988,5.965,3.52,3.52,0,0,1,5.965.988a34.418,34.418,0,0,1,8.075,23.6v21.12A3.519,3.519,0,0,1,10.52,49.233Z" transform="translate(0 0.094)"/><path class="c" d="M3.55,49.326a3.52,3.52,0,0,1-3.52-3.52V24.686A34.419,34.419,0,0,1,8.1,1.075a3.52,3.52,0,1,1,5.064,4.891l-.086.087A28.158,28.158,0,0,0,7.07,24.686v21.12A3.52,3.52,0,0,1,3.55,49.326Z" transform="translate(98.489 0)"/></g><path class="d" d="M55.038.811a3.471,3.471,0,0,0-2.9-.746A213.074,213.074,0,0,1,28.159,3.522,212.914,212.914,0,0,1,4.182.065a3.478,3.478,0,0,0-2.9.746A3.52,3.52,0,0,0,0,3.522c0,10.56,14.558,17.6,28.159,17.6s28.159-7.04,28.159-17.6A3.519,3.519,0,0,0,55.038.811Z" transform="translate(49.287 25.679)"/><g transform="matrix(0.799, 0.602, -0.602, 0.799, 66.476, 0)"><path class="e" d="M13.554,31.886,0,17.848a24.573,24.573,0,0,0,18.748-6.62C27.51,3.169,27.33,1.83,27.07.148s3.6,11.4,2.17,15.288S17.252,29.309,17.252,29.309Z" transform="translate(26.627 15.224) rotate(-31)"/><path class="e" d="M16.306,32.483,28.16,18.9s-8.219.749-17.146-7.461S2.272,1.865,2.537.151-1.134,11.764.326,15.726,12.538,29.858,12.538,29.858Z" transform="translate(0 31.223) rotate(-31)"/></g></g><g transform="matrix(0.848, -0.53, 0.53, 0.848, 245.709, 225.351)"><path class="f" d="M3.757,0c0,3.978,6.893,10.53,15.4,10.53S34.551,3.978,34.551,0l4.911,13.342-12.835,24L3.808,32.033,0,3.649Zm0,0" transform="translate(11.039 0)"/><path class="g" d="M60.386,45.88V83.226a138.253,138.253,0,0,1-30.192,3.237c-3.777,0-7.353-.156-10.63-.4h-.005A128.737,128.737,0,0,1,0,83.226V45.88C9.952,38.882,8.4,7.361,8.4,0h6.4s-2.6,25.386,15.4,25.386S45.589,0,45.589,0h6.4C51.989,7.361,50.435,38.882,60.386,45.88Zm0,0" transform="translate(0 0)"/><path class="f" d="M19.558,86.063A128.737,128.737,0,0,1,0,83.226V45.88C9.952,38.882,8.4,7.361,8.4,0h3.566c0,6.88,1.383,32.494-2.77,41.033S4.307,84.48,19.558,86.063Zm0,0" transform="translate(0 0)"/><g transform="translate(15.926 37.319)"><path class="h" d="M12.263,19.348H3.355V18.216c0-1.464,1.749-2.691,3.775-4.112A24.143,24.143,0,0,0,11.2,10.776,6.862,6.862,0,0,0,13.2,6.067,5.81,5.81,0,0,0,11.26,1.661,6.853,6.853,0,0,0,6.674,0,6.878,6.878,0,0,0,2.3,1.474,5.005,5.005,0,0,0,.425,5.4c0,1.221.484,1.815,1.48,1.815a2,2,0,0,0,1.263-.385,1.1,1.1,0,0,0,.46-.852,2.919,2.919,0,0,1,.889-2.262,3.179,3.179,0,0,1,2.157-.723A3.083,3.083,0,0,1,9.933,6.158c0,2.3-2.362,4.024-4.863,5.851S0,15.714,0,18.217v2.946a.97.97,0,0,0,.5.789,1.8,1.8,0,0,0,.954.3H12.263c.557,0,1.085-.719,1.085-1.48S12.841,19.348,12.263,19.348Zm0,0" transform="translate(0 0)"/><path class="h" d="M10.617,10.5c1.5-.749,2.4-2.639,2.4-5.071C13.014,1.827,10.952,0,6.887,0A6.656,6.656,0,0,0,1.8,1.833,4.935,4.935,0,0,0,.486,5.155c0,1.152.234,1.51,1.693,1.51,1.051,0,1.54-.422,1.54-1.328,0-2.148,1.966-2.468,3.137-2.468,2.057,0,3.015.987,3.015,3.106,0,2.917-1.508,3.319-3.137,3.319-.66,0-1.055.5-1.055,1.329,0,.3.077,1.3,1.055,1.3a4.187,4.187,0,0,1,2.67.74,3.094,3.094,0,0,1,1.013,2.549v.577c0,2.59-1.127,3.744-3.653,3.744C4.3,19.53,3.2,18.214,3.2,16.91c0-.914-.443-1.237-1.692-1.237C.367,15.673,0,16.01,0,17.062a5.012,5.012,0,0,0,1.586,3.589A7.279,7.279,0,0,0,6.735,22.43a7.54,7.54,0,0,0,4.912-1.505,6.356,6.356,0,0,0,2.035-5.139v-.577A4.641,4.641,0,0,0,10.617,10.5Zm0,0" transform="translate(14.853 0)"/></g></g><g transform="matrix(0.951, 0.309, -0.309, 0.951, 173.858, 120.527)"><path class="i" d="M83.885,102.813C79.192,83.368,67.569,51.63,67.569,51.63l4.746-13.208a3.8,3.8,0,0,0,.085-2.294,65.028,65.028,0,0,0-3.6-9.754c-2.794-6.035-2.123-9.294-2.123-9.294l4.47-15.515L69.581,0,64.319,16.435C47.556,27.164,44.325,40.678,44.325,40.678S41.093,27.164,24.33,16.435L19.069,0,17.5,1.565l4.47,15.515s.67,3.26-2.123,9.294a65.024,65.024,0,0,0-3.6,9.754,3.8,3.8,0,0,0,.085,2.294L21.08,51.63S9.458,83.368,4.764,102.813C.9,118.819.52,141.033.008,151.382a6.267,6.267,0,0,0,6.084,6.654c.158,0,.311,0,.46-.017H82.1c.149.012.3.018.46.017a6.267,6.267,0,0,0,6.084-6.654C88.129,141.033,87.749,118.819,83.885,102.813Z" transform="translate(0 0)"/><g transform="translate(10.768 53.291)"><path class="j" d="M15.516,0S-.291,67.016,0,104.727H4.015S6.374,39.812,15.516,0Z" transform="translate(0 0)"/><path class="j" d="M0,0S15.215,67.016,14.92,104.727H11.5S9.142,39.812,0,0Z" transform="translate(51.597 0)"/><path class="j" d="M8.781,0S-.149,67.016,0,104.727H2.878S4.089,39.812,8.781,0Z" transform="translate(13.019 0)"/><path class="j" d="M0,0S8.93,67.016,8.779,104.727H5.9S4.692,39.812,0,0Z" transform="translate(46.187 0)"/><path class="j" d="M6.582,0S-.06,67.016,0,104.727h5.42S4.7,39.812,6.582,0Z" transform="translate(23.263 0)"/><path class="j" d="M0,0S6.6,67.016,6.542,104.727H1.184S1.881,39.812,0,0Z" transform="translate(37.269 0)"/></g></g><path class="k" d="M2569.034,131.267c-.351,1.334,60.922,5.751,55.091,15.531s-31.829,12.152-40.248,7.232-9.384-8.1-11.339-11.53S2569.385,129.934,2569.034,131.267Z" transform="translate(-2536.419 54.815)"/><path class="a" d="M2571.281,129.985c4.8.148,55.921,4.189,50.238,13.18s-29.812,14.308-38.016,9.784-9.145-7.444-11.05-10.6S2566.477,129.836,2571.281,129.985Z" transform="translate(-2536.424 59.045)"/><path class="l" d="M2581.686,170.731c.817-.375,9.39-12.128,13.064-27.13.705-2.881.488.494-6.031-1.4s-5.445-1.841-5.445-1.841-5.715,27.585-4.085,28.822A10.968,10.968,0,0,0,2581.686,170.731Z" transform="translate(-2529.857 60.952)"/><path class="m" d="M.334,137.906c0-3.636-1.255-39.281,1.1-74.443C3.563,31.624,9.313,0,9.313,0s.1,1.447,6.7,4.287,8.819,4.98,19.692,7.072C49.333,13.98,65.47,4.228,65.47,4.228s-2.48,126.646-2.48,133.679H43.532S43.4,82.064,35.807,41.745c-.346-1.8-3.1-1.986-3.443-.182-7.579,40.319-12.571,96.344-12.571,96.344Z" transform="matrix(0.985, 0.174, -0.174, 0.985, 23.947, 184.975)"/><path class="n" d="M2568.6,124.666s5.3,16.68,29.514,19.367,25.579-8.951,25.579-8.951" transform="translate(-2536.707 65.499)"/></g></g><g transform="translate(1218 1026.963)"><g transform="translate(116.998 56.861) rotate(-42)"><path class="o" d="M61.8,38.626l2.983-8.946a3.863,3.863,0,0,1,3.664-2.642h8.8l3.862-15.45L65.665,3.862,57.94,0H54.077S50.214,3.862,42.489,3.862,31.062,0,31.062,0H27.038L3.862,11.588l3.863,15.45h8.8a3.863,3.863,0,0,1,3.664,2.642l2.983,8.946S0,46.352,0,73.39c0,0,11.588,11.588,42.489,11.588S84.978,73.39,84.978,73.39C84.978,46.352,61.8,38.626,61.8,38.626Zm0,0" transform="translate(0 0)"/><path class="b" d="M4.5,3.838,3.539,0,0,1.77,3.863,17.22H7.844l-.965-3.862Zm0,0" transform="translate(3.862 9.818)"/><path class="b" d="M3.345,3.838,4.305,0,7.844,1.77,3.982,17.22H0l.966-3.862Zm0,0" transform="translate(73.271 9.818)"/><path class="p" d="M13.52,13.52A13.519,13.519,0,0,0,27.038,0H25.108S21.244,3.862,13.52,3.862,2.092,0,2.092,0H0A13.519,13.519,0,0,0,13.52,13.52Zm0,0" transform="translate(28.97 0)"/><path class="b" d="M15.451,15.45A15.468,15.468,0,0,1,0,0H3.863A11.588,11.588,0,0,0,15.451,11.588,11.588,11.588,0,0,0,27.039,0H30.9A15.468,15.468,0,0,1,15.451,15.45Zm0,0" transform="translate(27.038 0)"/><path class="b" d="M61.8,0H23.176S0,7.725,0,34.764c0,0,11.588,11.588,42.489,11.588S84.978,34.764,84.978,34.764C84.978,7.725,61.8,0,61.8,0Zm0,0" transform="translate(0 38.626)"/><path class="q" d="M15.451,7.725,13.429,5.7l-4.1-4.1A5.463,5.463,0,0,0,0,5.462V9.988a5.463,5.463,0,0,0,9.325,3.862Zm0,0" transform="translate(27.038 30.901)"/><path class="q" d="M0,7.725,6.125,1.6A5.463,5.463,0,0,1,15.45,5.462V9.988a5.463,5.463,0,0,1-9.325,3.862Zm0,0" transform="translate(42.489 30.901)"/><path class="r" d="M3.863,0A3.863,3.863,0,1,1,0,3.862,3.862,3.862,0,0,1,3.863,0Zm0,0" transform="translate(38.626 34.764)"/><path class="s" d="M3.862,1.932A1.931,1.931,0,1,1,1.931,0,1.931,1.931,0,0,1,3.862,1.932Zm0,0" transform="translate(30.901 34.764)"/><path class="s" d="M3.863,1.932A1.932,1.932,0,1,1,1.931,0,1.931,1.931,0,0,1,3.863,1.932Zm0,0" transform="translate(50.214 34.764)"/></g><g transform="translate(7.262 480.632)"><path class="t" d="M101.235,507.3H86.711a7.263,7.263,0,0,1-7.263-7.263V485.517H108.5v14.525A7.262,7.262,0,0,1,101.235,507.3Z" transform="translate(-79.448 -485.517)"/><path class="t" d="M419.028,507.3H404.5a7.263,7.263,0,0,1-7.263-7.263V485.517H426.29v14.525A7.262,7.262,0,0,1,419.028,507.3Z" transform="translate(-135.795 -485.517)"/></g><path class="b" d="M361.116,406.694H85.146a14.524,14.524,0,0,1-14.525-14.525V14.525A14.524,14.524,0,0,1,85.146,0h275.97A14.524,14.524,0,0,1,375.64,14.525V392.169A14.524,14.524,0,0,1,361.116,406.694Z" transform="translate(-70.621 81.201)"/><path class="u" d="M70.621,14.525V87.149h305.02V14.525A14.526,14.526,0,0,0,361.116,0H85.146A14.525,14.525,0,0,0,70.621,14.525Z" transform="translate(-70.621 81.201)"/><path class="v" d="M220.69,0V43.575a29.049,29.049,0,0,0,58.1,0V0Z" transform="translate(-97.229 81.201)"/><circle class="w" cx="108.936" cy="108.936" r="108.936" transform="translate(43.574 190.137)"/><circle class="t" cx="14.525" cy="14.525" r="14.525" transform="translate(137.985 110.251)"/><path class="x" d="M325.056,64.36a7.263,7.263,0,0,1-7.263-7.263V42.573a7.263,7.263,0,1,1,14.525,0V57.1A7.264,7.264,0,0,1,325.056,64.36Z" transform="translate(-114.447 74.94)"/><path class="y" d="M360.366,64.36A7.263,7.263,0,0,1,353.1,57.1V42.573a7.263,7.263,0,1,1,14.525,0V57.1A7.263,7.263,0,0,1,360.366,64.36Z" transform="translate(-120.707 74.94)"/><path class="z" d="M395.676,64.36a7.263,7.263,0,0,1-7.263-7.263V42.573a7.263,7.263,0,1,1,14.525,0V57.1A7.263,7.263,0,0,1,395.676,64.36Z" transform="translate(-126.968 74.94)"/><circle class="aa" cx="72.624" cy="72.624" r="72.624" transform="translate(79.886 226.449)"/><path class="ab" d="M240.348,198.338a72.576,72.576,0,0,1,71.72,61.73,72.626,72.626,0,1,0-143.44,0A72.577,72.577,0,0,1,240.348,198.338Z" transform="translate(-87.838 49.897)"/><path class="ac" d="M168.162,75.754H95.538a7.263,7.263,0,0,1-7.263-7.263V24.918a7.263,7.263,0,0,1,7.263-7.263h72.624a7.263,7.263,0,0,1,7.263,7.263V68.492A7.263,7.263,0,0,1,168.162,75.754Z" transform="translate(-73.751 78.071)"/><path class="v" d="M151.071,70.621H122.022a7.263,7.263,0,0,0-7.263,7.263v7.263h43.575V77.884A7.263,7.263,0,0,0,151.071,70.621Z" transform="translate(-78.447 68.679)"/><path class="ad" d="M295.445,299.242a7.262,7.262,0,0,1,5.188,12.344,57.919,57.919,0,0,1-16.6,11.848,7.261,7.261,0,0,1-6.226-13.12,43.488,43.488,0,0,0,12.454-8.89A7.241,7.241,0,0,1,295.445,299.242Z" transform="translate(-106.62 28.143)"/><path class="ae" d="M201.453,287.832a7.255,7.255,0,0,1,6.227,3.514,43.408,43.408,0,0,0,31.131,20.695,7.261,7.261,0,0,1-2.057,14.376,57.86,57.86,0,0,1-41.514-27.574,7.263,7.263,0,0,1,6.212-11.01Z" transform="translate(-92.532 30.166)"/><path class="af" d="M237.218,158.9a87.149,87.149,0,1,0,87.149,87.149A87.149,87.149,0,0,0,237.218,158.9Zm0,159.772a72.624,72.624,0,1,1,69.41-94.043,14.523,14.523,0,0,0-11.31,14.156v14.525a14.523,14.523,0,0,0,11.31,14.156A72.653,72.653,0,0,1,237.218,318.669Z" transform="translate(-84.708 53.027)"/></g></g></svg>